<?xml version="1.0" encoding="utf-8" standalone="no"?>
<!DOCTYPE svg PUBLIC "-//W3C//DTD SVG 1.1//EN"
  "http://www.w3.org/Graphics/SVG/1.1/DTD/svg11.dtd">
<!-- Created with matplotlib (https://matplotlib.org/) -->
<svg height="432pt" version="1.1" viewBox="0 0 720 432" width="720pt" xmlns="http://www.w3.org/2000/svg" xmlns:xlink="http://www.w3.org/1999/xlink">
 <defs>
  <style type="text/css">
*{stroke-linecap:butt;stroke-linejoin:round;}
  </style>
 </defs>
 <g id="figure_1">
  <g id="patch_1">
   <path d="M 0 432 
L 720 432 
L 720 0 
L 0 0 
z
" style="fill:#ffffff;"/>
  </g>
  <g id="axes_1">
   <g id="patch_2">
    <path d="M 499.482202 213.615487 
C 499.482202 179.34223 485.976682 146.412619 461.91148 122.009296 
C 437.846278 97.605973 405.108295 83.642349 370.838374 83.164185 
C 336.568453 82.68602 303.453624 95.730808 278.71693 119.453204 
C 253.980235 143.1756 239.561225 175.715583 238.60499 209.975498 
L 369.018202 213.615487 
L 499.482202 213.615487 
z
" style="fill:#1f77b4;"/>
   </g>
   <g id="patch_3">
    <path d="M 238.568587 212.584524 
C 238.086315 229.863321 241.042788 247.066926 247.265823 263.193403 
C 253.488858 279.319881 262.855253 294.049966 274.819511 306.525781 
C 286.783769 319.001596 301.109027 328.97615 316.960985 335.868528 
C 332.812943 342.760906 349.87777 346.434654 367.161614 346.675815 
C 384.445459 346.916976 401.606142 343.720775 417.644229 337.273359 
C 433.682317 330.825942 448.280294 321.254953 460.587976 309.117804 
C 472.895658 296.980655 482.669384 282.517632 489.339933 266.571058 
C 496.010483 250.624484 499.445795 233.510064 499.445798 216.224537 
L 368.981798 216.224513 
L 238.568587 212.584524 
z
" style="fill:#ff7f0e;"/>
   </g>
   <g id="matplotlib.axis_1"/>
   <g id="matplotlib.axis_2"/>
   <g id="text_1">
    <!-- 女性 -->
    <defs>
     <path d="M 92 -5.328125 
L 86.625 -12.640625 
Q 70.453125 -3.21875 52.25 6 
Q 37.75 -5.078125 6.453125 -13.328125 
Q 4.6875 -9.90625 1.859375 -5.515625 
Q 30.328125 0.78125 44.234375 10.015625 
Q 30.5625 16.796875 15.828125 23.484375 
Q 22.46875 37.9375 27.640625 51.703125 
L 2.734375 51.703125 
L 2.734375 58.9375 
L 30.21875 58.9375 
Q 34.625 71.34375 37.796875 83.25 
L 46.484375 81.5 
Q 42.578125 69.28125 38.921875 58.9375 
L 97.171875 58.9375 
L 97.171875 51.703125 
L 76.8125 51.703125 
Q 72.5625 25.984375 58.453125 11.578125 
Q 75.640625 3.265625 92 -5.328125 
z
M 68.65625 51.703125 
L 36.28125 51.703125 
Q 30.90625 37.25 25.984375 26.703125 
Q 38.578125 21.046875 50.78125 15.234375 
Q 64.984375 28.765625 68.65625 51.703125 
z
" id="MicrosoftYaHei-22899"/>
     <path d="M 30.671875 -2.390625 
L 62.3125 -2.390625 
L 62.3125 23.78125 
L 37.109375 23.78125 
L 37.109375 30.609375 
L 62.3125 30.609375 
L 62.3125 54.25 
L 46.484375 54.25 
Q 42.875 44.96875 38.09375 35.796875 
Q 33.890625 39.203125 31.546875 40.28125 
Q 41.3125 57.953125 45.21875 76.421875 
L 52.9375 74.359375 
Q 51.265625 67.625 49.03125 61.078125 
L 62.3125 61.078125 
L 62.3125 82.5625 
L 70.015625 82.5625 
L 70.015625 61.078125 
L 95.703125 61.078125 
L 95.703125 54.25 
L 70.015625 54.25 
L 70.015625 30.609375 
L 93.75 30.609375 
L 93.75 23.78125 
L 70.015625 23.78125 
L 70.015625 -2.390625 
L 98.734375 -2.390625 
L 98.734375 -9.234375 
L 30.671875 -9.234375 
z
M 15.4375 82.671875 
L 22.953125 82.671875 
L 22.953125 63.921875 
L 27.15625 66.265625 
Q 32.234375 58.34375 35.84375 51.421875 
L 29.78125 47.515625 
Q 26.375 54.734375 22.953125 60.296875 
L 22.953125 -13.625 
L 15.4375 -13.625 
z
M 6.34375 60.59375 
L 12.796875 59.125 
Q 11.03125 47.3125 7.90625 34.03125 
Q 5.28125 35.015625 1.171875 35.890625 
Q 4.109375 46.53125 6.34375 60.59375 
z
" id="MicrosoftYaHei-24615"/>
    </defs>
    <g transform="translate(371.020391 72.872961)scale(0.1 -0.1)">
     <use xlink:href="#MicrosoftYaHei-22899"/>
     <use x="100" xlink:href="#MicrosoftYaHei-24615"/>
    </g>
   </g>
   <g id="text_2">
    <!-- 49.556% -->
    <defs>
     <path d="M 45.40625 75.640625 
L 45.40625 25.6875 
L 56.734375 25.6875 
L 56.734375 17.78125 
L 45.40625 17.78125 
L 45.40625 0 
L 36.140625 0 
L 36.140625 17.78125 
L 0.828125 17.78125 
L 0.828125 25.25 
Q 10.25 35.84375 19.765625 49.65625 
Q 29.296875 63.484375 35.5 75.640625 
z
M 11.578125 25.6875 
L 36.140625 25.6875 
L 36.140625 61.71875 
Q 31.0625 52.59375 25.25 44.015625 
Q 19.4375 35.453125 11.578125 25.6875 
z
" id="MicrosoftYaHei-52"/>
     <path d="M 9.03125 10.25 
Q 15.28125 6.640625 22.515625 6.640625 
Q 32.671875 6.640625 38.25 14.640625 
Q 43.84375 22.65625 43.84375 37.40625 
Q 43.75 37.3125 43.65625 37.40625 
Q 38.671875 27.9375 26.90625 27.9375 
Q 17.390625 27.9375 11.140625 34.46875 
Q 4.890625 41.015625 4.890625 51.46875 
Q 4.890625 62.59375 11.71875 69.75 
Q 18.5625 76.90625 29.4375 76.90625 
Q 40.71875 76.90625 47.0625 68.046875 
Q 53.421875 59.1875 53.421875 42.234375 
Q 53.421875 21.296875 45.21875 10.015625 
Q 37.015625 -1.265625 22.515625 -1.265625 
Q 14.546875 -1.265625 9.03125 1.3125 
z
M 14.546875 52.6875 
Q 14.546875 45.0625 18.453125 40.59375 
Q 22.359375 36.140625 29.25 36.140625 
Q 35.203125 36.140625 39.25 40.203125 
Q 43.3125 44.28125 43.3125 50.09375 
Q 43.3125 58.25 39.28125 63.59375 
Q 35.25 68.953125 28.65625 68.953125 
Q 22.5625 68.953125 18.546875 64.3125 
Q 14.546875 59.671875 14.546875 52.6875 
z
" id="MicrosoftYaHei-57"/>
     <path d="M 5.8125 5.03125 
Q 5.8125 7.671875 7.609375 9.46875 
Q 9.421875 11.28125 12.109375 11.28125 
Q 14.84375 11.28125 16.640625 9.453125 
Q 18.453125 7.625 18.453125 5.03125 
Q 18.453125 2.484375 16.640625 0.65625 
Q 14.84375 -1.171875 12.0625 -1.171875 
Q 9.375 -1.171875 7.59375 0.65625 
Q 5.8125 2.484375 5.8125 5.03125 
z
" id="MicrosoftYaHei-46"/>
     <path d="M 51.46875 23.34375 
Q 51.46875 12.25 44.109375 5.46875 
Q 36.765625 -1.3125 24.359375 -1.3125 
Q 13.71875 -1.3125 8.5 1.859375 
L 8.5 11.625 
Q 16.15625 6.640625 24.125 6.640625 
Q 32.03125 6.640625 36.890625 11 
Q 41.75 15.375 41.75 22.609375 
Q 41.75 29.828125 36.6875 33.859375 
Q 31.640625 37.890625 22.40625 37.890625 
Q 15.28125 37.890625 9.578125 37.25 
L 12.359375 75.640625 
L 47.703125 75.640625 
L 47.703125 67.234375 
L 20.40625 67.234375 
L 18.84375 45.796875 
L 25.734375 46.09375 
Q 37.75 46.09375 44.609375 40.109375 
Q 51.46875 34.125 51.46875 23.34375 
z
" id="MicrosoftYaHei-53"/>
     <path d="M 49.703125 65.921875 
Q 43.796875 68.953125 37.359375 68.953125 
Q 27.546875 68.953125 21.578125 60.40625 
Q 15.625 51.859375 15.53125 37.0625 
L 15.765625 37.0625 
Q 21.140625 47.46875 32.90625 47.46875 
Q 42.71875 47.46875 48.578125 41.0625 
Q 54.4375 34.671875 54.4375 24.078125 
Q 54.4375 12.984375 47.671875 5.859375 
Q 40.921875 -1.265625 30.421875 -1.265625 
Q 18.890625 -1.265625 12.328125 7.734375 
Q 5.765625 16.75 5.765625 33.296875 
Q 5.765625 53.328125 14.375 65.109375 
Q 23 76.90625 37.0625 76.90625 
Q 45.125 76.90625 49.703125 74.703125 
z
M 16.109375 24.75 
Q 16.109375 17.28125 20.09375 11.953125 
Q 24.078125 6.640625 30.671875 6.640625 
Q 36.921875 6.640625 40.828125 11.234375 
Q 44.734375 15.828125 44.734375 23.046875 
Q 44.734375 30.859375 41.046875 35.203125 
Q 37.359375 39.546875 30.5625 39.546875 
Q 24.125 39.546875 20.109375 35.15625 
Q 16.109375 30.765625 16.109375 24.75 
z
" id="MicrosoftYaHei-54"/>
     <path d="M 4.25 56.546875 
Q 4.25 65.828125 9.203125 71.296875 
Q 14.15625 76.765625 22.5625 76.765625 
Q 30.609375 76.765625 35.125 71.734375 
Q 39.65625 66.703125 39.65625 57.71875 
Q 39.65625 48.78125 34.671875 43.203125 
Q 29.6875 37.640625 21.4375 37.640625 
Q 13.625 37.640625 8.9375 42.8125 
Q 4.25 48 4.25 56.546875 
z
M 11.765625 57.03125 
Q 11.765625 50.734375 14.5 47.3125 
Q 17.234375 43.890625 21.96875 43.890625 
Q 26.859375 43.890625 29.515625 47.4375 
Q 32.171875 50.984375 32.171875 57.421875 
Q 32.171875 63.71875 29.5625 67.15625 
Q 26.953125 70.609375 22.21875 70.609375 
Q 17.390625 70.609375 14.578125 67.015625 
Q 11.765625 63.421875 11.765625 57.03125 
z
M 72.609375 75.640625 
L 24.03125 -0.484375 
L 15.875 -0.484375 
L 64.453125 75.640625 
z
M 49.5625 17.71875 
Q 49.5625 27 54.515625 32.546875 
Q 59.46875 38.09375 67.828125 38.09375 
Q 75.828125 38.09375 80.359375 33.03125 
Q 84.90625 27.984375 84.90625 18.796875 
Q 84.90625 9.90625 79.875 4.359375 
Q 74.859375 -1.171875 66.75 -1.171875 
Q 58.890625 -1.171875 54.21875 4.078125 
Q 49.5625 9.328125 49.5625 17.71875 
z
M 57.03125 18.171875 
Q 57.03125 12.015625 59.765625 8.5625 
Q 62.5 5.125 67.234375 5.125 
Q 72.125 5.125 74.78125 8.6875 
Q 77.4375 12.25 77.4375 18.65625 
Q 77.4375 25 74.78125 28.359375 
Q 72.125 31.734375 67.484375 31.734375 
Q 62.5 31.734375 59.765625 28.140625 
Q 57.03125 24.5625 57.03125 18.171875 
z
" id="MicrosoftYaHei-37"/>
    </defs>
    <g transform="translate(349.797805 138.098612)scale(0.1 -0.1)">
     <use xlink:href="#MicrosoftYaHei-52"/>
     <use x="58.642578" xlink:href="#MicrosoftYaHei-57"/>
     <use x="117.285156" xlink:href="#MicrosoftYaHei-46"/>
     <use x="141.357422" xlink:href="#MicrosoftYaHei-53"/>
     <use x="200" xlink:href="#MicrosoftYaHei-53"/>
     <use x="258.642578" xlink:href="#MicrosoftYaHei-54"/>
     <use x="317.285156" xlink:href="#MicrosoftYaHei-37"/>
    </g>
   </g>
   <g id="text_3">
    <!-- 男性 -->
    <defs>
     <path d="M 11.234375 78.46875 
L 88.765625 78.46875 
L 88.765625 31.890625 
L 81.34375 31.890625 
L 81.34375 35.984375 
L 18.65625 35.984375 
L 18.65625 31.890625 
L 11.234375 31.890625 
z
M 5.078125 24.265625 
L 40.328125 24.265625 
Q 40.875 28.078125 41.3125 32.765625 
L 49.21875 32.765625 
Q 48.6875 27.9375 48.1875 24.265625 
L 93.171875 24.265625 
Q 92.1875 11.671875 91.3125 4.4375 
Q 89.453125 -11.375 74.703125 -11.375 
Q 65.328125 -11.375 55.46875 -10.984375 
Q 55.078125 -7.671875 54 -2.390625 
Q 64.75 -3.5625 73.53125 -3.5625 
Q 82.421875 -3.5625 83.5 5.125 
Q 84.28125 10.6875 84.859375 17.4375 
L 47.078125 17.4375 
Q 43.5 -4.203125 8.015625 -13.421875 
Q 7.71875 -13.03125 2.9375 -6.390625 
Q 35.15625 1.078125 39.203125 17.4375 
L 5.078125 17.4375 
z
M 18.65625 42.625 
L 46.296875 42.625 
L 46.296875 53.953125 
L 18.65625 53.953125 
z
M 53.71875 42.625 
L 81.34375 42.625 
L 81.34375 53.953125 
L 53.71875 53.953125 
z
M 81.34375 71.828125 
L 53.71875 71.828125 
L 53.71875 60.59375 
L 81.34375 60.59375 
z
M 18.65625 60.59375 
L 46.296875 60.59375 
L 46.296875 71.828125 
L 18.65625 71.828125 
z
" id="MicrosoftYaHei-30007"/>
    </defs>
    <g transform="translate(346.979596 362.474852)scale(0.1 -0.1)">
     <use xlink:href="#MicrosoftYaHei-30007"/>
     <use x="100" xlink:href="#MicrosoftYaHei-24615"/>
    </g>
   </g>
   <g id="text_4">
    <!-- 50.444% -->
    <defs>
     <path d="M 4.4375 36.328125 
Q 4.4375 56.34375 11.078125 66.625 
Q 17.71875 76.90625 30.328125 76.90625 
Q 54.34375 76.90625 54.34375 38.140625 
Q 54.34375 19 47.578125 8.859375 
Q 40.828125 -1.265625 28.609375 -1.265625 
Q 17.09375 -1.265625 10.765625 8.34375 
Q 4.4375 17.96875 4.4375 36.328125 
z
M 14.203125 36.765625 
Q 14.203125 6.640625 29.5 6.640625 
Q 44.53125 6.640625 44.53125 37.25 
Q 44.53125 68.953125 29.78125 68.953125 
Q 14.203125 68.953125 14.203125 36.765625 
z
" id="MicrosoftYaHei-48"/>
    </defs>
    <g transform="translate(347.577188 297.249201)scale(0.1 -0.1)">
     <use xlink:href="#MicrosoftYaHei-53"/>
     <use x="58.642578" xlink:href="#MicrosoftYaHei-48"/>
     <use x="117.285156" xlink:href="#MicrosoftYaHei-46"/>
     <use x="141.357422" xlink:href="#MicrosoftYaHei-52"/>
     <use x="200" xlink:href="#MicrosoftYaHei-52"/>
     <use x="258.642578" xlink:href="#MicrosoftYaHei-52"/>
     <use x="317.285156" xlink:href="#MicrosoftYaHei-37"/>
    </g>
   </g>
   <g id="text_5">
    <!-- 1880～2014年美国新生儿性别比例饼状图 -->
    <defs>
     <path d="M 27.828125 0 
L 27.828125 64.703125 
Q 25.59375 62.453125 20.234375 59.671875 
Q 14.890625 56.890625 10.359375 55.765625 
L 10.359375 65.140625 
Q 16.359375 66.796875 23.1875 70.4375 
Q 30.03125 74.078125 33.6875 77.296875 
L 37.3125 77.296875 
L 37.3125 0 
z
" id="MicrosoftYaHei-49"/>
     <path d="M 4.78125 21.09375 
Q 4.78125 27.640625 8.6875 33.15625 
Q 12.59375 38.671875 18.75 41.015625 
Q 13.8125 43.796875 10.9375 48.140625 
Q 8.0625 52.484375 8.0625 57.5625 
Q 8.0625 62.9375 10.8125 67.375 
Q 13.578125 71.828125 18.484375 74.359375 
Q 23.390625 76.90625 29.296875 76.90625 
Q 35.25 76.90625 40.1875 74.390625 
Q 45.125 71.875 47.859375 67.421875 
Q 50.59375 62.984375 50.59375 57.5625 
Q 50.59375 52.59375 47.78125 48.21875 
Q 44.96875 43.84375 39.984375 41.015625 
Q 46.140625 38.625 50 33.109375 
Q 53.859375 27.59375 53.859375 21.09375 
Q 53.859375 14.65625 50.78125 9.546875 
Q 47.703125 4.4375 42.03125 1.609375 
Q 36.375 -1.21875 29.296875 -1.21875 
Q 22.265625 -1.21875 16.640625 1.609375 
Q 11.03125 4.4375 7.90625 9.5625 
Q 4.78125 14.703125 4.78125 21.09375 
z
M 14.15625 21.53125 
Q 14.15625 14.796875 18.3125 10.734375 
Q 22.46875 6.6875 29.34375 6.6875 
Q 36.078125 6.6875 40.34375 10.8125 
Q 44.625 14.9375 44.625 21.53125 
Q 44.625 27.78125 40.296875 32.046875 
Q 35.984375 36.328125 29.34375 36.328125 
Q 22.75 36.328125 18.453125 32.15625 
Q 14.15625 27.984375 14.15625 21.53125 
z
M 16.890625 56.78125 
Q 16.890625 51.703125 20.5 48.0625 
Q 24.125 44.4375 29.34375 44.4375 
Q 34.46875 44.4375 38.203125 48.09375 
Q 41.9375 51.765625 41.9375 56.78125 
Q 41.9375 61.921875 38.34375 65.484375 
Q 34.765625 69.046875 29.34375 69.046875 
Q 23.96875 69.046875 20.421875 65.546875 
Q 16.890625 62.0625 16.890625 56.78125 
z
" id="MicrosoftYaHei-56"/>
     <path d="M 76.21875 39.59375 
Q 75.828125 31.734375 71.828125 27.3125 
Q 67.828125 22.90625 61.1875 22.90625 
Q 58.015625 22.90625 55.15625 24.09375 
Q 52.296875 25.296875 47.3125 28.71875 
Q 42.140625 32.171875 38.921875 32.171875 
Q 31.78125 32.171875 31.296875 23 
L 23.78125 23 
Q 24.125 30.859375 28.125 35.21875 
Q 32.125 39.59375 38.8125 39.59375 
Q 44.828125 39.59375 51.21875 35.015625 
Q 55.671875 31.984375 57.5 31.171875 
Q 59.328125 30.375 61.671875 30.375 
Q 64.3125 30.375 66.40625 32.71875 
Q 68.5 35.0625 68.703125 39.59375 
z
" id="MicrosoftYaHei-65374"/>
     <path d="M 41.65625 55.8125 
Q 41.65625 61.921875 37.796875 65.40625 
Q 33.9375 68.890625 27.296875 68.890625 
Q 22.609375 68.890625 17.8125 66.5 
Q 13.03125 64.109375 8.890625 59.671875 
L 8.890625 68.953125 
Q 12.59375 72.796875 17.296875 74.84375 
Q 22.015625 76.90625 28.375 76.90625 
Q 38.625 76.90625 44.875 71.40625 
Q 51.125 65.921875 51.125 56.546875 
Q 51.125 48.1875 47.28125 42.078125 
Q 43.453125 35.984375 34.1875 29.59375 
Q 24.703125 23.046875 21.5 20.21875 
Q 18.3125 17.390625 17.03125 14.796875 
Q 15.765625 12.203125 15.765625 8.5 
L 53.375 8.5 
L 53.375 0 
L 5.8125 0 
L 5.8125 3.765625 
Q 5.8125 10.296875 7.59375 14.859375 
Q 9.375 19.4375 13.46875 23.75 
Q 17.578125 28.078125 26.265625 34.125 
Q 35.15625 40.375 38.40625 45.09375 
Q 41.65625 49.8125 41.65625 55.8125 
z
" id="MicrosoftYaHei-50"/>
     <path d="M 1.859375 19.96875 
L 17.578125 19.96875 
L 17.578125 47.90625 
L 52.15625 47.90625 
L 52.15625 65.28125 
L 23.4375 65.28125 
Q 16.84375 53.421875 8.6875 43.40625 
Q 6.15625 46.140625 2.640625 48.875 
Q 16.5 64.5 23.4375 83.9375 
L 31.453125 81.6875 
Q 29.390625 76.859375 27.15625 72.3125 
L 94.34375 72.3125 
L 94.34375 65.28125 
L 60.0625 65.28125 
L 60.0625 47.90625 
L 92.671875 47.90625 
L 92.671875 41.0625 
L 60.0625 41.0625 
L 60.0625 19.96875 
L 98.734375 19.96875 
L 98.734375 12.9375 
L 60.0625 12.9375 
L 60.0625 -13.421875 
L 52.15625 -13.421875 
L 52.15625 12.9375 
L 1.859375 12.9375 
z
M 25.296875 19.96875 
L 52.15625 19.96875 
L 52.15625 41.0625 
L 25.296875 41.0625 
z
" id="MicrosoftYaHei-24180"/>
     <path d="M 2.34375 37.546875 
L 46.1875 37.546875 
L 46.1875 46.734375 
L 10.359375 46.734375 
L 10.359375 53.375 
L 46.1875 53.375 
L 46.1875 62.359375 
L 4.5 62.359375 
L 4.5 69 
L 35.296875 69 
Q 30.28125 73.34375 22.265625 79.4375 
L 26.765625 84.328125 
Q 35.25 78.5625 40.921875 74.265625 
L 35.75 69 
L 61.71875 69 
L 58.109375 73.09375 
Q 65.828125 78.46875 72.078125 83.9375 
L 77.828125 78.46875 
Q 71.578125 73.78125 64.3125 69 
L 96.09375 69 
L 96.09375 62.359375 
L 54.203125 62.359375 
L 54.203125 53.375 
L 90.828125 53.375 
L 90.828125 46.734375 
L 54.203125 46.734375 
L 54.203125 37.546875 
L 97.859375 37.546875 
L 97.859375 30.90625 
L 2.34375 30.90625 
z
M 98.640625 -4.734375 
Q 94.921875 -9.71875 92.96875 -12.84375 
Q 60.890625 -6.546875 50.25 12.546875 
Q 40.71875 -7.625 6.34375 -13.625 
Q 4.390625 -10.296875 1.5625 -6.203125 
Q 34.375 -1.65625 42.828125 14.3125 
L 3.71875 14.3125 
L 3.71875 20.953125 
L 45.515625 20.953125 
Q 46.484375 24.359375 47.078125 28.765625 
L 55.078125 28.765625 
Q 54.296875 24.46875 53.328125 20.953125 
L 96.875 20.953125 
L 96.875 14.3125 
L 56.734375 14.3125 
Q 68.171875 -2.15625 98.640625 -4.734375 
z
" id="MicrosoftYaHei-32654"/>
     <path d="M 7.328125 78.078125 
L 92.78125 78.078125 
L 92.78125 -13.03125 
L 85.25 -13.03125 
L 85.25 -8.15625 
L 14.84375 -8.15625 
L 14.84375 -13.140625 
L 7.328125 -13.140625 
z
M 85.25 71.140625 
L 14.84375 71.140625 
L 14.84375 -1.21875 
L 85.25 -1.21875 
z
M 19.34375 15.765625 
L 46.296875 15.765625 
L 46.296875 35.109375 
L 22.75 35.109375 
L 22.75 41.75 
L 46.296875 41.75 
L 46.296875 54.828125 
L 20.90625 54.828125 
L 20.90625 61.46875 
L 79.109375 61.46875 
L 79.109375 54.828125 
L 53.515625 54.828125 
L 53.515625 41.75 
L 77.15625 41.75 
L 77.15625 35.109375 
L 53.515625 35.109375 
L 53.515625 15.765625 
L 80.671875 15.765625 
L 80.671875 9.125 
L 19.34375 9.125 
z
M 58.59375 28.859375 
L 64.0625 32.953125 
Q 69.4375 27.390625 73.25 22.515625 
L 67.484375 18.109375 
Q 62.796875 24.46875 58.59375 28.859375 
z
" id="MicrosoftYaHei-22269"/>
     <path d="M 56.15625 74.953125 
Q 76.375 75.140625 93.453125 78.953125 
L 96 71.4375 
Q 76.65625 68.890625 63.09375 68.109375 
L 63.09375 45.359375 
L 98.734375 45.359375 
L 98.734375 38.71875 
L 84.765625 38.71875 
L 84.765625 -12.453125 
L 77.546875 -12.453125 
L 77.546875 38.71875 
L 63.09375 38.71875 
L 63.09375 33.9375 
Q 63.09375 3.953125 48.734375 -12.75 
Q 46.390625 -9.71875 43.5625 -6.5 
Q 56.15625 7.28125 56.15625 34.234375 
z
M 4.109375 31.109375 
L 24.03125 31.109375 
L 24.03125 40.375 
L 31.0625 40.375 
L 31.0625 31.109375 
L 50.203125 31.109375 
L 50.203125 24.859375 
L 31.0625 24.859375 
L 31.0625 -0.640625 
Q 31.0625 -10.984375 21.09375 -10.984375 
Q 16.890625 -10.984375 11.625 -10.890625 
Q 11.234375 -7.671875 10.546875 -3.46875 
Q 16.21875 -4.046875 19.4375 -4.046875 
Q 24.03125 -4.046875 24.03125 0.921875 
L 24.03125 24.859375 
L 4.109375 24.859375 
z
M 1.375 49.359375 
L 17.09375 49.359375 
Q 12.9375 55.953125 9.28125 60.6875 
L 14.546875 64.40625 
Q 17.78125 60.5 22.859375 53.375 
L 17.328125 49.359375 
L 30.21875 49.359375 
Q 35.546875 57.03125 40.046875 64.5 
L 46.96875 60.59375 
Q 42.234375 54.5 37.9375 49.359375 
L 52.734375 49.359375 
L 52.734375 43.109375 
L 1.375 43.109375 
z
M 4.5 72.015625 
L 25.59375 72.015625 
Q 23.484375 76.03125 20.796875 80.71875 
L 27.046875 83.640625 
Q 30.078125 78.65625 32.71875 73.578125 
L 29.4375 72.015625 
L 50.203125 72.015625 
L 50.203125 65.765625 
L 4.5 65.765625 
z
M 11.625 20.453125 
L 18.265625 17.328125 
Q 12.984375 6.296875 7.8125 -2.59375 
Q 4.984375 -0.828125 1.375 0.921875 
Q 6.15625 8.34375 11.625 20.453125 
z
M 39.75 19.96875 
Q 45.21875 12.546875 49.3125 6.296875 
L 43.0625 2 
Q 38.765625 9.515625 33.984375 16.15625 
z
" id="MicrosoftYaHei-26032"/>
     <path d="M 1.953125 0.25 
L 47.265625 0.25 
L 47.265625 25.140625 
L 12.703125 25.140625 
L 12.703125 32.671875 
L 47.265625 32.671875 
L 47.265625 55.21875 
L 21.484375 55.21875 
Q 14.984375 43.5 6.546875 34.03125 
Q 4.5 37.25 1.265625 40.875 
Q 15.046875 56.296875 23.046875 78.5625 
L 31.0625 76.421875 
Q 28.46875 69.28125 25.34375 62.75 
L 47.265625 62.75 
L 47.265625 83.453125 
L 55.671875 83.453125 
L 55.671875 62.75 
L 92.96875 62.75 
L 92.96875 55.21875 
L 55.671875 55.21875 
L 55.671875 32.671875 
L 90.234375 32.671875 
L 90.234375 25.140625 
L 55.671875 25.140625 
L 55.671875 0.25 
L 98.25 0.25 
L 98.25 -7.078125 
L 1.953125 -7.078125 
z
" id="MicrosoftYaHei-29983"/>
     <path d="M 26.46875 80.609375 
L 34.859375 80.609375 
L 34.859375 48.09375 
Q 34.859375 24.078125 29.5 13.234375 
Q 24.03125 0.828125 7.234375 -12.25 
Q 4.984375 -9.234375 1.375 -5.03125 
Q 16.796875 6.5 21.6875 17.4375 
Q 26.46875 26.703125 26.46875 48.09375 
z
M 56.84375 81.296875 
L 65.234375 81.296875 
L 65.234375 6 
Q 65.046875 -1.90625 73.828125 -1.703125 
L 79.5 -1.703125 
Q 87.40625 -1.703125 88.375 5.515625 
Q 89.453125 12.75 89.9375 24.65625 
Q 94.046875 23 98.640625 21.4375 
Q 97.65625 9.328125 96.484375 2.78125 
Q 94.734375 -9.421875 81.0625 -9.421875 
L 71.96875 -9.421875 
Q 56.34375 -9.90625 56.84375 5.21875 
z
" id="MicrosoftYaHei-20799"/>
     <path d="M 8.40625 77.484375 
L 52.734375 77.484375 
L 52.734375 43.3125 
L 45.125 43.3125 
L 45.125 47.3125 
L 16.015625 47.3125 
L 16.015625 43.3125 
L 8.40625 43.3125 
z
M 4.6875 33.0625 
L 20.5625 33.0625 
Q 20.796875 37.984375 20.90625 44.09375 
L 28.515625 44.09375 
Q 28.375 37.984375 28.078125 33.0625 
L 53.609375 33.0625 
Q 53.328125 16.0625 52.546875 5.125 
Q 51.859375 -10.6875 37.984375 -10.59375 
Q 31.34375 -10.59375 24.421875 -10.015625 
Q 23.921875 -5.421875 22.953125 -1.90625 
Q 30.671875 -3.171875 36.71875 -3.171875 
Q 44.53125 -3.265625 44.921875 5.90625 
Q 45.703125 13.921875 45.90625 26.03125 
L 27.640625 26.03125 
Q 26.375 0.828125 6.734375 -13.421875 
Q 4.6875 -10.40625 1.375 -6.890625 
Q 19.34375 5.71875 20.125 26.03125 
L 4.6875 26.03125 
z
M 84.765625 82.46875 
L 92.875 82.46875 
L 92.875 0.828125 
Q 92.875 -11.671875 80.671875 -11.671875 
Q 74.3125 -11.671875 65.234375 -11.578125 
Q 64.65625 -7.5625 63.765625 -2.78125 
Q 73.828125 -3.5625 78.03125 -3.5625 
Q 84.765625 -3.5625 84.765625 2.984375 
z
M 64.65625 72.609375 
L 72.5625 72.609375 
L 72.5625 10.40625 
L 64.65625 10.40625 
z
M 45.125 70.453125 
L 16.015625 70.453125 
L 16.015625 54.34375 
L 45.125 54.34375 
z
" id="MicrosoftYaHei-21035"/>
     <path d="M 50.390625 83.0625 
L 58.5 83.0625 
L 58.5 41.75 
Q 77.484375 55.46875 89.75 70.453125 
L 96.6875 65.28125 
Q 80.859375 47.859375 58.5 32.125 
L 58.5 3.859375 
Q 58.5 -2.59375 64.15625 -2.59375 
L 80.859375 -2.59375 
Q 87.3125 -2.59375 88.28125 3.171875 
Q 89.453125 10.59375 90.046875 19.484375 
Q 94.140625 17.921875 98.4375 16.65625 
Q 97.5625 7.5625 96.09375 0.34375 
Q 94.046875 -9.71875 83.109375 -9.71875 
L 61.625 -9.71875 
Q 50.390625 -9.71875 50.390625 2.484375 
z
M 16.609375 80.515625 
L 16.609375 51.21875 
L 44.140625 51.21875 
L 44.140625 43.890625 
L 16.609375 43.890625 
L 16.609375 2.390625 
Q 26.765625 6.6875 43.171875 14.5 
Q 43.171875 9.90625 43.5625 5.71875 
Q 29.203125 -0.046875 19.234375 -5.125 
Q 14.9375 -7.375 11.328125 -10.5 
L 5.375 -2.875 
Q 8.5 -0.53125 8.5 4.25 
L 8.5 80.515625 
z
" id="MicrosoftYaHei-27604"/>
     <path d="M 37.203125 28.765625 
L 41.109375 34.234375 
Q 45.5625 31.203125 50.734375 27.15625 
Q 54.5 37.15625 55.953125 48.875 
L 42.234375 48.875 
Q 36.71875 31 28.609375 20.171875 
Q 26.5625 23.296875 23.921875 26.21875 
Q 34.96875 42.09375 40.28125 70.65625 
L 29.6875 70.65625 
L 29.6875 77.484375 
L 67.484375 77.484375 
L 67.484375 70.65625 
L 47.5625 70.65625 
Q 46.046875 62.640625 44.1875 55.609375 
L 63.1875 55.609375 
L 63.1875 48.875 
Q 59.1875 10.40625 31.84375 -12.84375 
Q 29.6875 -9.90625 26.46875 -6.5 
Q 40.28125 4.640625 47.859375 20.359375 
Q 43.015625 24.3125 37.203125 28.765625 
z
M 1.375 35.796875 
Q 13.96875 57.171875 20.015625 83.15625 
L 27.25 81.78125 
Q 24.65625 70.84375 20.703125 60.203125 
L 20.703125 -12.640625 
L 14.0625 -12.640625 
L 14.0625 44.484375 
Q 9.765625 35.546875 4.5 26.8125 
Q 3.328125 30.71875 1.375 35.796875 
z
M 87.109375 82.859375 
L 94.234375 82.859375 
L 94.234375 1.3125 
Q 94.234375 -6.109375 91.890625 -8.84375 
Q 89.84375 -11.375 83.6875 -11.46875 
Q 79.5 -11.578125 70.125 -11.28125 
Q 69.734375 -7.28125 68.75 -3.171875 
Q 76.265625 -3.953125 81.0625 -3.953125 
Q 84.859375 -4.046875 85.9375 -2.59375 
Q 87.109375 -1.3125 87.109375 3.65625 
z
M 76.765625 10.203125 
L 69.828125 10.203125 
L 69.828125 67.53125 
L 76.765625 67.53125 
z
" id="MicrosoftYaHei-20363"/>
     <path d="M 36.03125 34.234375 
L 50.296875 34.234375 
Q 50.390625 37.453125 50.390625 57.859375 
L 41.703125 57.859375 
L 41.703125 64.890625 
L 55.90625 64.890625 
Q 51.171875 71.625 45.21875 78.765625 
L 50.6875 83.15625 
Q 56.546875 76.8125 62.40625 69.390625 
L 56.296875 64.890625 
L 70.90625 64.890625 
Q 76.703125 72.953125 82.125 83.0625 
L 89.65625 78.765625 
Q 84.03125 70.953125 79.203125 64.890625 
L 95.90625 64.890625 
L 95.90625 57.859375 
L 83.40625 57.859375 
L 83.40625 34.234375 
L 98.046875 34.234375 
L 98.046875 27.203125 
L 83.40625 27.203125 
L 83.40625 -12.0625 
L 75.984375 -12.0625 
L 75.984375 27.203125 
L 57.421875 27.203125 
Q 56.6875 15.1875 54.390625 8.640625 
Q 50.59375 -2.390625 39.65625 -13.328125 
Q 37.203125 -10.59375 33.796875 -7.671875 
Q 43.75 1.8125 47.359375 11.96875 
Q 49.21875 17.53125 49.90625 27.203125 
L 36.03125 27.203125 
z
M 1.078125 47.609375 
Q 9.859375 63.71875 14.75 83.453125 
L 22.171875 81.5 
Q 20.171875 74.609375 17.828125 68.109375 
L 38.875 68.109375 
L 38.875 61.1875 
Q 36.140625 53.265625 32.03125 44.484375 
Q 28.03125 46.34375 25.484375 47.21875 
Q 29 54.15625 31.25 61.28125 
L 15.234375 61.28125 
Q 10.9375 50.53125 5.671875 40.875 
Q 3.71875 44.484375 1.078125 47.609375 
z
M 35.15625 13.140625 
Q 35.546875 8.84375 36.71875 5.125 
Q 24.8125 -3.078125 16.40625 -9.71875 
L 11.421875 -3.265625 
Q 14.75 -0.046875 14.75 4.640625 
L 14.75 49.46875 
L 22.078125 49.46875 
L 22.078125 3.765625 
Q 27.9375 8.0625 35.15625 13.140625 
z
M 57.71875 34.234375 
L 75.984375 34.234375 
L 75.984375 57.859375 
L 57.8125 57.859375 
Q 57.8125 40.09375 57.71875 34.234375 
z
" id="MicrosoftYaHei-39292"/>
     <path d="M 34.578125 54.9375 
L 59.234375 54.9375 
Q 59.765625 68.265625 59.765625 82.765625 
L 67.578125 82.765625 
Q 67.578125 67.78125 67.09375 54.9375 
L 96.484375 54.9375 
L 96.484375 47.609375 
L 67.328125 47.609375 
Q 76.3125 9.8125 98.640625 -3.5625 
Q 94.828125 -7.671875 92.28125 -10.984375 
Q 72.46875 4.15625 64.359375 32.90625 
Q 58.84375 6.453125 36.921875 -12.640625 
Q 33.890625 -8.453125 31.453125 -6 
Q 56.25 13.328125 58.84375 47.609375 
L 34.578125 47.609375 
z
M 23.34375 83.0625 
L 31.15625 83.0625 
L 31.15625 -13.03125 
L 23.34375 -13.03125 
L 23.34375 25.09375 
Q 14.3125 17.484375 6.25 10.796875 
L 1.171875 17.53125 
Q 12.015625 25.4375 23.34375 34.71875 
z
M 3.421875 64.59375 
L 10.0625 67.71875 
Q 15.921875 57.375 20.40625 45.0625 
L 12.984375 41.65625 
Q 8.109375 55.328125 3.421875 64.59375 
z
M 78.21875 78.953125 
Q 86.71875 72.515625 92.96875 66.84375 
Q 90.234375 63.71875 87.59375 60.6875 
Q 80.46875 67.625 73.140625 73.6875 
z
" id="MicrosoftYaHei-29366"/>
     <path d="M 6.734375 79.25 
L 92.875 79.25 
L 92.875 -12.640625 
L 85.546875 -12.640625 
L 85.546875 -7.953125 
L 14.0625 -7.953125 
L 14.0625 -12.640625 
L 6.734375 -12.640625 
z
M 85.546875 72.21875 
L 14.0625 72.21875 
L 14.0625 -0.921875 
L 85.546875 -0.921875 
z
M 17.390625 48.296875 
Q 30.765625 57.953125 39.359375 71.046875 
L 45.796875 68.015625 
Q 44 65.328125 41.890625 62.75 
L 76.46875 62.75 
L 76.46875 56.984375 
Q 69.28125 48.296875 58.15625 41.3125 
Q 68.453125 37.84375 83.40625 35.890625 
Q 81.15625 31.5 80.171875 28.5625 
Q 62.84375 32.515625 50.875 37.5 
Q 38.921875 32.125 19.140625 27 
Q 17.78125 30.21875 15.828125 33.25 
Q 32.953125 36.765625 44.140625 41.3125 
Q 37.25 46.046875 32.28125 52.203125 
Q 27.640625 47.75 22.171875 43.5 
Q 20.21875 45.5625 17.390625 48.296875 
z
M 24.421875 10.5 
L 26.46875 17.234375 
Q 50.875 14.015625 73.4375 9.71875 
L 70.796875 2.296875 
Q 49.21875 7.078125 24.421875 10.5 
z
M 66.796875 56.6875 
L 36.671875 56.6875 
Q 36.53125 56.5 36.375 56.34375 
Q 42.046875 49.078125 50.6875 44.390625 
Q 60.796875 49.8125 66.796875 56.6875 
z
M 34.671875 23.484375 
L 36.625 30.03125 
Q 50.984375 27.875 66.796875 25.140625 
L 64.75 18.3125 
Q 48.734375 21.53125 34.671875 23.484375 
z
" id="MicrosoftYaHei-22270"/>
    </defs>
    <g transform="translate(256.8525 45.84)scale(0.12 -0.12)">
     <use xlink:href="#MicrosoftYaHei-49"/>
     <use x="58.642578" xlink:href="#MicrosoftYaHei-56"/>
     <use x="117.285156" xlink:href="#MicrosoftYaHei-56"/>
     <use x="175.927734" xlink:href="#MicrosoftYaHei-48"/>
     <use x="234.570312" xlink:href="#MicrosoftYaHei-65374"/>
     <use x="334.570312" xlink:href="#MicrosoftYaHei-50"/>
     <use x="393.212891" xlink:href="#MicrosoftYaHei-48"/>
     <use x="451.855469" xlink:href="#MicrosoftYaHei-49"/>
     <use x="510.498047" xlink:href="#MicrosoftYaHei-52"/>
     <use x="569.140625" xlink:href="#MicrosoftYaHei-24180"/>
     <use x="669.140625" xlink:href="#MicrosoftYaHei-32654"/>
     <use x="769.140625" xlink:href="#MicrosoftYaHei-22269"/>
     <use x="869.140625" xlink:href="#MicrosoftYaHei-26032"/>
     <use x="969.140625" xlink:href="#MicrosoftYaHei-29983"/>
     <use x="1069.140625" xlink:href="#MicrosoftYaHei-20799"/>
     <use x="1169.140625" xlink:href="#MicrosoftYaHei-24615"/>
     <use x="1269.140625" xlink:href="#MicrosoftYaHei-21035"/>
     <use x="1369.140625" xlink:href="#MicrosoftYaHei-27604"/>
     <use x="1469.140625" xlink:href="#MicrosoftYaHei-20363"/>
     <use x="1569.140625" xlink:href="#MicrosoftYaHei-39292"/>
     <use x="1669.140625" xlink:href="#MicrosoftYaHei-29366"/>
     <use x="1769.140625" xlink:href="#MicrosoftYaHei-22270"/>
    </g>
   </g>
  </g>
 </g>
</svg>
