<?xml version="1.0" encoding="utf-8" standalone="no"?>
<!DOCTYPE svg PUBLIC "-//W3C//DTD SVG 1.1//EN"
  "http://www.w3.org/Graphics/SVG/1.1/DTD/svg11.dtd">
<!-- Created with matplotlib (https://matplotlib.org/) -->
<svg height="432pt" version="1.1" viewBox="0 0 720 432" width="720pt" xmlns="http://www.w3.org/2000/svg" xmlns:xlink="http://www.w3.org/1999/xlink">
 <defs>
  <style type="text/css">
*{stroke-linecap:butt;stroke-linejoin:round;}
  </style>
 </defs>
 <g id="figure_1">
  <g id="patch_1">
   <path d="M 0 432 
L 720 432 
L 720 0 
L 0 0 
z
" style="fill:#ffffff;"/>
  </g>
  <g id="axes_1">
   <g id="patch_2">
    <path d="M 90 378 
L 648 378 
L 648 51.84 
L 90 51.84 
z
" style="fill:#ffffff;"/>
   </g>
   <g id="patch_3">
    <path clip-path="url(#p677766a8f8)" d="M 115.363636 378 
L 152.939394 378 
L 152.939394 372.703563 
L 115.363636 372.703563 
z
" style="fill:#1f77b4;"/>
   </g>
   <g id="patch_4">
    <path clip-path="url(#p677766a8f8)" d="M 162.333333 378 
L 199.909091 378 
L 199.909091 372.726803 
L 162.333333 372.726803 
z
" style="fill:#1f77b4;"/>
   </g>
   <g id="patch_5">
    <path clip-path="url(#p677766a8f8)" d="M 209.30303 378 
L 246.878788 378 
L 246.878788 373.026063 
L 209.30303 373.026063 
z
" style="fill:#1f77b4;"/>
   </g>
   <g id="patch_6">
    <path clip-path="url(#p677766a8f8)" d="M 256.272727 378 
L 293.848485 378 
L 293.848485 373.527898 
L 256.272727 373.527898 
z
" style="fill:#1f77b4;"/>
   </g>
   <g id="patch_7">
    <path clip-path="url(#p677766a8f8)" d="M 303.242424 378 
L 340.818182 378 
L 340.818182 373.7348 
L 303.242424 373.7348 
z
" style="fill:#1f77b4;"/>
   </g>
   <g id="patch_8">
    <path clip-path="url(#p677766a8f8)" d="M 350.212121 378 
L 387.787879 378 
L 387.787879 373.7958 
L 350.212121 373.7958 
z
" style="fill:#1f77b4;"/>
   </g>
   <g id="patch_9">
    <path clip-path="url(#p677766a8f8)" d="M 397.181818 378 
L 434.757576 378 
L 434.757576 374.292298 
L 397.181818 374.292298 
z
" style="fill:#1f77b4;"/>
   </g>
   <g id="patch_10">
    <path clip-path="url(#p677766a8f8)" d="M 444.151515 378 
L 481.727273 378 
L 481.727273 375.335116 
L 444.151515 375.335116 
z
" style="fill:#1f77b4;"/>
   </g>
   <g id="patch_11">
    <path clip-path="url(#p677766a8f8)" d="M 491.121212 378 
L 528.69697 378 
L 528.69697 375.351452 
L 491.121212 375.351452 
z
" style="fill:#1f77b4;"/>
   </g>
   <g id="patch_12">
    <path clip-path="url(#p677766a8f8)" d="M 538.090909 378 
L 575.666667 378 
L 575.666667 375.545758 
L 538.090909 375.545758 
z
" style="fill:#1f77b4;"/>
   </g>
   <g id="patch_13">
    <path clip-path="url(#p677766a8f8)" d="M 585.060606 378 
L 622.636364 378 
L 622.636364 67.371429 
L 585.060606 67.371429 
z
" style="fill:#1f77b4;"/>
   </g>
   <g id="matplotlib.axis_1">
    <g id="xtick_1">
     <g id="line2d_1">
      <defs>
       <path d="M 0 0 
L 0 3.5 
" id="m8d1ff2ce77" style="stroke:#000000;stroke-width:0.8;"/>
      </defs>
      <g>
       <use style="stroke:#000000;stroke-width:0.8;" x="181.121212" xlink:href="#m8d1ff2ce77" y="378"/>
      </g>
     </g>
     <g id="text_1">
      <!-- 2 -->
      <defs>
       <path d="M 41.65625 55.8125 
Q 41.65625 61.921875 37.796875 65.40625 
Q 33.9375 68.890625 27.296875 68.890625 
Q 22.609375 68.890625 17.8125 66.5 
Q 13.03125 64.109375 8.890625 59.671875 
L 8.890625 68.953125 
Q 12.59375 72.796875 17.296875 74.84375 
Q 22.015625 76.90625 28.375 76.90625 
Q 38.625 76.90625 44.875 71.40625 
Q 51.125 65.921875 51.125 56.546875 
Q 51.125 48.1875 47.28125 42.078125 
Q 43.453125 35.984375 34.1875 29.59375 
Q 24.703125 23.046875 21.5 20.21875 
Q 18.3125 17.390625 17.03125 14.796875 
Q 15.765625 12.203125 15.765625 8.5 
L 53.375 8.5 
L 53.375 0 
L 5.8125 0 
L 5.8125 3.765625 
Q 5.8125 10.296875 7.59375 14.859375 
Q 9.375 19.4375 13.46875 23.75 
Q 17.578125 28.078125 26.265625 34.125 
Q 35.15625 40.375 38.40625 45.09375 
Q 41.65625 49.8125 41.65625 55.8125 
z
" id="MicrosoftYaHei-50"/>
      </defs>
      <g transform="translate(178.189181 392.99375)scale(0.1 -0.1)">
       <use xlink:href="#MicrosoftYaHei-50"/>
      </g>
     </g>
    </g>
    <g id="xtick_2">
     <g id="line2d_2">
      <g>
       <use style="stroke:#000000;stroke-width:0.8;" x="275.060606" xlink:href="#m8d1ff2ce77" y="378"/>
      </g>
     </g>
     <g id="text_2">
      <!-- 4 -->
      <defs>
       <path d="M 45.40625 75.640625 
L 45.40625 25.6875 
L 56.734375 25.6875 
L 56.734375 17.78125 
L 45.40625 17.78125 
L 45.40625 0 
L 36.140625 0 
L 36.140625 17.78125 
L 0.828125 17.78125 
L 0.828125 25.25 
Q 10.25 35.84375 19.765625 49.65625 
Q 29.296875 63.484375 35.5 75.640625 
z
M 11.578125 25.6875 
L 36.140625 25.6875 
L 36.140625 61.71875 
Q 31.0625 52.59375 25.25 44.015625 
Q 19.4375 35.453125 11.578125 25.6875 
z
" id="MicrosoftYaHei-52"/>
      </defs>
      <g transform="translate(272.128575 392.99375)scale(0.1 -0.1)">
       <use xlink:href="#MicrosoftYaHei-52"/>
      </g>
     </g>
    </g>
    <g id="xtick_3">
     <g id="line2d_3">
      <g>
       <use style="stroke:#000000;stroke-width:0.8;" x="369" xlink:href="#m8d1ff2ce77" y="378"/>
      </g>
     </g>
     <g id="text_3">
      <!-- 6 -->
      <defs>
       <path d="M 49.703125 65.921875 
Q 43.796875 68.953125 37.359375 68.953125 
Q 27.546875 68.953125 21.578125 60.40625 
Q 15.625 51.859375 15.53125 37.0625 
L 15.765625 37.0625 
Q 21.140625 47.46875 32.90625 47.46875 
Q 42.71875 47.46875 48.578125 41.0625 
Q 54.4375 34.671875 54.4375 24.078125 
Q 54.4375 12.984375 47.671875 5.859375 
Q 40.921875 -1.265625 30.421875 -1.265625 
Q 18.890625 -1.265625 12.328125 7.734375 
Q 5.765625 16.75 5.765625 33.296875 
Q 5.765625 53.328125 14.375 65.109375 
Q 23 76.90625 37.0625 76.90625 
Q 45.125 76.90625 49.703125 74.703125 
z
M 16.109375 24.75 
Q 16.109375 17.28125 20.09375 11.953125 
Q 24.078125 6.640625 30.671875 6.640625 
Q 36.921875 6.640625 40.828125 11.234375 
Q 44.734375 15.828125 44.734375 23.046875 
Q 44.734375 30.859375 41.046875 35.203125 
Q 37.359375 39.546875 30.5625 39.546875 
Q 24.125 39.546875 20.109375 35.15625 
Q 16.109375 30.765625 16.109375 24.75 
z
" id="MicrosoftYaHei-54"/>
      </defs>
      <g transform="translate(366.067969 392.99375)scale(0.1 -0.1)">
       <use xlink:href="#MicrosoftYaHei-54"/>
      </g>
     </g>
    </g>
    <g id="xtick_4">
     <g id="line2d_4">
      <g>
       <use style="stroke:#000000;stroke-width:0.8;" x="462.939394" xlink:href="#m8d1ff2ce77" y="378"/>
      </g>
     </g>
     <g id="text_4">
      <!-- 8 -->
      <defs>
       <path d="M 4.78125 21.09375 
Q 4.78125 27.640625 8.6875 33.15625 
Q 12.59375 38.671875 18.75 41.015625 
Q 13.8125 43.796875 10.9375 48.140625 
Q 8.0625 52.484375 8.0625 57.5625 
Q 8.0625 62.9375 10.8125 67.375 
Q 13.578125 71.828125 18.484375 74.359375 
Q 23.390625 76.90625 29.296875 76.90625 
Q 35.25 76.90625 40.1875 74.390625 
Q 45.125 71.875 47.859375 67.421875 
Q 50.59375 62.984375 50.59375 57.5625 
Q 50.59375 52.59375 47.78125 48.21875 
Q 44.96875 43.84375 39.984375 41.015625 
Q 46.140625 38.625 50 33.109375 
Q 53.859375 27.59375 53.859375 21.09375 
Q 53.859375 14.65625 50.78125 9.546875 
Q 47.703125 4.4375 42.03125 1.609375 
Q 36.375 -1.21875 29.296875 -1.21875 
Q 22.265625 -1.21875 16.640625 1.609375 
Q 11.03125 4.4375 7.90625 9.5625 
Q 4.78125 14.703125 4.78125 21.09375 
z
M 14.15625 21.53125 
Q 14.15625 14.796875 18.3125 10.734375 
Q 22.46875 6.6875 29.34375 6.6875 
Q 36.078125 6.6875 40.34375 10.8125 
Q 44.625 14.9375 44.625 21.53125 
Q 44.625 27.78125 40.296875 32.046875 
Q 35.984375 36.328125 29.34375 36.328125 
Q 22.75 36.328125 18.453125 32.15625 
Q 14.15625 27.984375 14.15625 21.53125 
z
M 16.890625 56.78125 
Q 16.890625 51.703125 20.5 48.0625 
Q 24.125 44.4375 29.34375 44.4375 
Q 34.46875 44.4375 38.203125 48.09375 
Q 41.9375 51.765625 41.9375 56.78125 
Q 41.9375 61.921875 38.34375 65.484375 
Q 34.765625 69.046875 29.34375 69.046875 
Q 23.96875 69.046875 20.421875 65.546875 
Q 16.890625 62.0625 16.890625 56.78125 
z
" id="MicrosoftYaHei-56"/>
      </defs>
      <g transform="translate(460.007363 392.99375)scale(0.1 -0.1)">
       <use xlink:href="#MicrosoftYaHei-56"/>
      </g>
     </g>
    </g>
    <g id="xtick_5">
     <g id="line2d_5">
      <g>
       <use style="stroke:#000000;stroke-width:0.8;" x="556.878788" xlink:href="#m8d1ff2ce77" y="378"/>
      </g>
     </g>
     <g id="text_5">
      <!-- 10 -->
      <defs>
       <path d="M 27.828125 0 
L 27.828125 64.703125 
Q 25.59375 62.453125 20.234375 59.671875 
Q 14.890625 56.890625 10.359375 55.765625 
L 10.359375 65.140625 
Q 16.359375 66.796875 23.1875 70.4375 
Q 30.03125 74.078125 33.6875 77.296875 
L 37.3125 77.296875 
L 37.3125 0 
z
" id="MicrosoftYaHei-49"/>
       <path d="M 4.4375 36.328125 
Q 4.4375 56.34375 11.078125 66.625 
Q 17.71875 76.90625 30.328125 76.90625 
Q 54.34375 76.90625 54.34375 38.140625 
Q 54.34375 19 47.578125 8.859375 
Q 40.828125 -1.265625 28.609375 -1.265625 
Q 17.09375 -1.265625 10.765625 8.34375 
Q 4.4375 17.96875 4.4375 36.328125 
z
M 14.203125 36.765625 
Q 14.203125 6.640625 29.5 6.640625 
Q 44.53125 6.640625 44.53125 37.25 
Q 44.53125 68.953125 29.78125 68.953125 
Q 14.203125 68.953125 14.203125 36.765625 
z
" id="MicrosoftYaHei-48"/>
      </defs>
      <g transform="translate(551.014725 392.99375)scale(0.1 -0.1)">
       <use xlink:href="#MicrosoftYaHei-49"/>
       <use x="58.642578" xlink:href="#MicrosoftYaHei-48"/>
      </g>
     </g>
    </g>
   </g>
   <g id="matplotlib.axis_2">
    <g id="ytick_1">
     <g id="line2d_6">
      <defs>
       <path d="M 0 0 
L -3.5 0 
" id="m4d68ed8f4d" style="stroke:#000000;stroke-width:0.8;"/>
      </defs>
      <g>
       <use style="stroke:#000000;stroke-width:0.8;" x="90" xlink:href="#m4d68ed8f4d" y="378"/>
      </g>
     </g>
     <g id="text_6">
      <!-- 0 -->
      <g transform="translate(77.135937 381.996875)scale(0.1 -0.1)">
       <use xlink:href="#MicrosoftYaHei-48"/>
      </g>
     </g>
    </g>
    <g id="ytick_2">
     <g id="line2d_7">
      <g>
       <use style="stroke:#000000;stroke-width:0.8;" x="90" xlink:href="#m4d68ed8f4d" y="326.368704"/>
      </g>
     </g>
     <g id="text_7">
      <!-- 5000 -->
      <defs>
       <path d="M 51.46875 23.34375 
Q 51.46875 12.25 44.109375 5.46875 
Q 36.765625 -1.3125 24.359375 -1.3125 
Q 13.71875 -1.3125 8.5 1.859375 
L 8.5 11.625 
Q 16.15625 6.640625 24.125 6.640625 
Q 32.03125 6.640625 36.890625 11 
Q 41.75 15.375 41.75 22.609375 
Q 41.75 29.828125 36.6875 33.859375 
Q 31.640625 37.890625 22.40625 37.890625 
Q 15.28125 37.890625 9.578125 37.25 
L 12.359375 75.640625 
L 47.703125 75.640625 
L 47.703125 67.234375 
L 20.40625 67.234375 
L 18.84375 45.796875 
L 25.734375 46.09375 
Q 37.75 46.09375 44.609375 40.109375 
Q 51.46875 34.125 51.46875 23.34375 
z
" id="MicrosoftYaHei-53"/>
      </defs>
      <g transform="translate(59.54375 330.365579)scale(0.1 -0.1)">
       <use xlink:href="#MicrosoftYaHei-53"/>
       <use x="58.642578" xlink:href="#MicrosoftYaHei-48"/>
       <use x="117.285156" xlink:href="#MicrosoftYaHei-48"/>
       <use x="175.927734" xlink:href="#MicrosoftYaHei-48"/>
      </g>
     </g>
    </g>
    <g id="ytick_3">
     <g id="line2d_8">
      <g>
       <use style="stroke:#000000;stroke-width:0.8;" x="90" xlink:href="#m4d68ed8f4d" y="274.737408"/>
      </g>
     </g>
     <g id="text_8">
      <!-- 10000 -->
      <g transform="translate(53.679688 278.734283)scale(0.1 -0.1)">
       <use xlink:href="#MicrosoftYaHei-49"/>
       <use x="58.642578" xlink:href="#MicrosoftYaHei-48"/>
       <use x="117.285156" xlink:href="#MicrosoftYaHei-48"/>
       <use x="175.927734" xlink:href="#MicrosoftYaHei-48"/>
       <use x="234.570312" xlink:href="#MicrosoftYaHei-48"/>
      </g>
     </g>
    </g>
    <g id="ytick_4">
     <g id="line2d_9">
      <g>
       <use style="stroke:#000000;stroke-width:0.8;" x="90" xlink:href="#m4d68ed8f4d" y="223.106112"/>
      </g>
     </g>
     <g id="text_9">
      <!-- 15000 -->
      <g transform="translate(53.679688 227.102987)scale(0.1 -0.1)">
       <use xlink:href="#MicrosoftYaHei-49"/>
       <use x="58.642578" xlink:href="#MicrosoftYaHei-53"/>
       <use x="117.285156" xlink:href="#MicrosoftYaHei-48"/>
       <use x="175.927734" xlink:href="#MicrosoftYaHei-48"/>
       <use x="234.570312" xlink:href="#MicrosoftYaHei-48"/>
      </g>
     </g>
    </g>
    <g id="ytick_5">
     <g id="line2d_10">
      <g>
       <use style="stroke:#000000;stroke-width:0.8;" x="90" xlink:href="#m4d68ed8f4d" y="171.474816"/>
      </g>
     </g>
     <g id="text_10">
      <!-- 20000 -->
      <g transform="translate(53.679688 175.471691)scale(0.1 -0.1)">
       <use xlink:href="#MicrosoftYaHei-50"/>
       <use x="58.642578" xlink:href="#MicrosoftYaHei-48"/>
       <use x="117.285156" xlink:href="#MicrosoftYaHei-48"/>
       <use x="175.927734" xlink:href="#MicrosoftYaHei-48"/>
       <use x="234.570312" xlink:href="#MicrosoftYaHei-48"/>
      </g>
     </g>
    </g>
    <g id="ytick_6">
     <g id="line2d_11">
      <g>
       <use style="stroke:#000000;stroke-width:0.8;" x="90" xlink:href="#m4d68ed8f4d" y="119.84352"/>
      </g>
     </g>
     <g id="text_11">
      <!-- 25000 -->
      <g transform="translate(53.679688 123.840395)scale(0.1 -0.1)">
       <use xlink:href="#MicrosoftYaHei-50"/>
       <use x="58.642578" xlink:href="#MicrosoftYaHei-53"/>
       <use x="117.285156" xlink:href="#MicrosoftYaHei-48"/>
       <use x="175.927734" xlink:href="#MicrosoftYaHei-48"/>
       <use x="234.570312" xlink:href="#MicrosoftYaHei-48"/>
      </g>
     </g>
    </g>
    <g id="ytick_7">
     <g id="line2d_12">
      <g>
       <use style="stroke:#000000;stroke-width:0.8;" x="90" xlink:href="#m4d68ed8f4d" y="68.212224"/>
      </g>
     </g>
     <g id="text_12">
      <!-- 30000 -->
      <defs>
       <path d="M 6.984375 12.640625 
Q 14.75 6.640625 24.515625 6.640625 
Q 32.328125 6.640625 36.890625 10.46875 
Q 41.453125 14.3125 41.453125 20.75 
Q 41.453125 35.109375 20.90625 35.109375 
L 14.59375 35.109375 
L 14.59375 43.015625 
L 20.609375 43.015625 
Q 38.8125 43.015625 38.8125 56.5 
Q 38.8125 68.953125 24.90625 68.953125 
Q 16.9375 68.953125 9.90625 63.578125 
L 9.90625 72.609375 
Q 17.328125 76.90625 27.25 76.90625 
Q 36.921875 76.90625 42.78125 71.84375 
Q 48.640625 66.796875 48.640625 58.734375 
Q 48.640625 43.890625 33.5 39.65625 
L 33.5 39.453125 
Q 41.703125 38.578125 46.453125 33.671875 
Q 51.21875 28.765625 51.21875 21.4375 
Q 51.21875 11.234375 43.875 4.984375 
Q 36.53125 -1.265625 24.3125 -1.265625 
Q 13.578125 -1.265625 6.984375 2.734375 
z
" id="MicrosoftYaHei-51"/>
      </defs>
      <g transform="translate(53.679688 72.209099)scale(0.1 -0.1)">
       <use xlink:href="#MicrosoftYaHei-51"/>
       <use x="58.642578" xlink:href="#MicrosoftYaHei-48"/>
       <use x="117.285156" xlink:href="#MicrosoftYaHei-48"/>
       <use x="175.927734" xlink:href="#MicrosoftYaHei-48"/>
       <use x="234.570312" xlink:href="#MicrosoftYaHei-48"/>
      </g>
     </g>
    </g>
    <g id="text_13">
     <!-- 姓名重复人数（万人） -->
     <defs>
      <path d="M 38.875 -1.90625 
L 65.828125 -1.90625 
L 65.828125 23 
L 42.484375 23 
L 42.484375 30.421875 
L 65.828125 30.421875 
L 65.828125 54.4375 
L 52.15625 54.4375 
Q 49.21875 45.171875 45.703125 36.96875 
Q 41.015625 38.71875 38.09375 39.59375 
Q 46.484375 59.03125 49.90625 76.609375 
L 57.625 75.046875 
Q 56.109375 68.21875 54.34375 61.859375 
L 65.828125 61.859375 
L 65.828125 82.765625 
L 73.828125 82.765625 
L 73.828125 61.859375 
L 96.484375 61.859375 
L 96.484375 54.4375 
L 73.828125 54.4375 
L 73.828125 30.421875 
L 95.90625 30.421875 
L 95.90625 23 
L 73.828125 23 
L 73.828125 -1.90625 
L 98.25 -1.90625 
L 98.25 -9.328125 
L 38.875 -9.328125 
z
M 41.109375 4.640625 
L 35.25 -1.3125 
Q 30.171875 3.65625 24.703125 8.796875 
Q 17.671875 -2.390625 6.0625 -11.578125 
Q 4.109375 -8.546875 1.5625 -5.21875 
Q 13.234375 3.515625 19.390625 13.625 
Q 12.5 19.828125 4.984375 26.21875 
Q 8.59375 38.765625 11.53125 55.125 
L 1.765625 55.125 
L 1.765625 62.453125 
L 12.75 62.453125 
Q 14.3125 72.015625 15.625 82.765625 
L 23.53125 81.6875 
Q 21.828125 71.140625 20.3125 62.453125 
L 37.890625 62.453125 
L 37.890625 56.109375 
Q 35.6875 29.78125 28.609375 15.625 
Q 35.015625 10.203125 41.109375 4.640625 
z
M 30.46875 55.125 
L 19 55.125 
Q 15.53125 36.671875 12.890625 28.265625 
Q 18.015625 24.359375 22.953125 20.3125 
Q 29.15625 33.890625 30.46875 55.125 
z
" id="MicrosoftYaHei-22995"/>
      <path d="M 37.59375 83.25 
L 45.21875 80.125 
Q 42 75.828125 38.671875 71.921875 
L 88.578125 71.921875 
L 88.578125 64.984375 
Q 70.40625 44.1875 40.625 30.90625 
L 88.375 30.90625 
L 88.375 -13.53125 
L 80.5625 -13.53125 
L 80.5625 -7.171875 
L 29.109375 -7.171875 
L 29.109375 -13.53125 
L 21.296875 -13.53125 
L 21.296875 23.09375 
Q 13.671875 20.265625 5.46875 17.53125 
Q 3.328125 21.234375 0.984375 24.75 
Q 22.859375 30.71875 40.4375 39.3125 
Q 34.375 45.453125 27.34375 51.90625 
L 33.203125 56.984375 
Q 41.40625 49.65625 48.25 43.40625 
Q 65.4375 52.875 78.125 65.1875 
L 32.71875 65.1875 
Q 21.6875 53.171875 7.515625 43.015625 
Q 4.78125 46.625 2.4375 49.359375 
Q 21.78125 61.96875 37.59375 83.25 
z
M 80.5625 23.875 
L 29.109375 23.875 
L 29.109375 -0.34375 
L 80.5625 -0.34375 
z
" id="MicrosoftYaHei-21517"/>
      <path d="M 1.765625 -3.171875 
L 46.484375 -3.171875 
L 46.484375 4.046875 
L 9.375 4.046875 
L 9.375 9.8125 
L 46.484375 9.8125 
L 46.484375 18.015625 
L 20.125 18.015625 
L 20.125 14.5 
L 13.28125 14.5 
L 13.28125 51.21875 
L 46.484375 51.21875 
L 46.484375 58.25 
L 2.546875 58.25 
L 2.546875 64.3125 
L 46.484375 64.3125 
L 46.484375 71.96875 
Q 28.765625 71.4375 9.765625 71.046875 
Q 9.1875 74.171875 8.40625 77.6875 
Q 57.90625 78.265625 88.578125 80.328125 
L 89.75 73.6875 
Q 72.359375 72.859375 53.515625 72.171875 
L 53.515625 64.3125 
L 97.859375 64.3125 
L 97.859375 58.25 
L 53.515625 58.25 
L 53.515625 51.21875 
L 87.015625 51.21875 
L 87.015625 14.59375 
L 80.171875 14.59375 
L 80.171875 18.015625 
L 53.515625 18.015625 
L 53.515625 9.8125 
L 90.71875 9.8125 
L 90.71875 4.046875 
L 53.515625 4.046875 
L 53.515625 -3.171875 
L 97.859375 -3.171875 
L 97.859375 -9.234375 
L 1.765625 -9.234375 
z
M 53.515625 23.6875 
L 80.171875 23.6875 
L 80.171875 32.078125 
L 53.515625 32.078125 
z
M 20.125 23.6875 
L 46.484375 23.6875 
L 46.484375 32.078125 
L 20.125 32.078125 
z
M 80.171875 45.5625 
L 53.515625 45.5625 
L 53.515625 37.25 
L 80.171875 37.25 
z
M 20.125 37.25 
L 46.484375 37.25 
L 46.484375 45.5625 
L 20.125 45.5625 
z
" id="MicrosoftYaHei-37325"/>
      <path d="M 1.265625 55.609375 
Q 15.234375 66.546875 24.421875 83.546875 
L 33.015625 83.546875 
Q 30.671875 79.4375 28.171875 75.640625 
L 96.875 75.640625 
L 96.875 69.390625 
L 23.828125 69.390625 
Q 21.1875 65.765625 18.359375 62.453125 
L 87.109375 62.453125 
L 87.109375 26.515625 
L 80.28125 26.515625 
L 80.28125 29.046875 
L 22.859375 29.046875 
L 22.859375 25.53125 
L 16.109375 25.53125 
L 16.109375 59.8125 
Q 11.1875 54.296875 5.765625 49.46875 
Q 4.109375 52.296875 1.265625 55.609375 
z
M 1.265625 4.546875 
Q 19.234375 13.328125 30.171875 26.703125 
L 38.875 26.703125 
Q 36.71875 23.96875 34.46875 21.4375 
L 87.3125 21.4375 
L 87.3125 16.15625 
Q 77.828125 7.71875 63.09375 1.078125 
Q 78.375 -2.9375 98.734375 -4.4375 
Q 96.09375 -8.84375 94.140625 -12.453125 
Q 70.359375 -9.125 53.375 -2.734375 
Q 35.984375 -8.796875 11.328125 -13.625 
Q 9.46875 -10.40625 6.84375 -6.984375 
Q 31.0625 -2.984375 44.625 0.921875 
Q 33.640625 6.203125 26.21875 13.09375 
Q 16.9375 4.734375 6.0625 -0.828125 
Q 3.90625 2 1.265625 4.546875 
z
M 22.859375 35.109375 
L 80.28125 35.109375 
L 80.28125 42.921875 
L 22.859375 42.921875 
z
M 80.28125 56.390625 
L 22.859375 56.390625 
L 22.859375 48.6875 
L 80.28125 48.6875 
z
M 76.078125 15.765625 
L 31.640625 15.765625 
Q 40.1875 8.640625 53.5625 3.953125 
Q 67.140625 9.234375 76.078125 15.765625 
z
" id="MicrosoftYaHei-22797"/>
      <path d="M 1.5625 -4.734375 
Q 44.140625 19.875 46.578125 81.59375 
L 55.171875 81.59375 
Q 54.640625 71.140625 53.125 61.671875 
Q 65.234375 12.84375 98.640625 -2.59375 
Q 94.53125 -7.078125 91.40625 -11.078125 
Q 62.40625 5.328125 50.046875 46.96875 
Q 39.359375 6.734375 7.71875 -12.15625 
Q 5.078125 -8.546875 1.5625 -4.734375 
z
" id="MicrosoftYaHei-20154"/>
      <path d="M 65.234375 82.859375 
L 73.046875 81.6875 
Q 71 72.21875 68.265625 64.015625 
L 98.140625 64.015625 
L 98.140625 57.375 
L 92 57.375 
Q 89.546875 28.65625 79.5 11.765625 
Q 87.40625 1.03125 99.609375 -5.8125 
Q 96.484375 -10.109375 94.34375 -13.53125 
Q 82.421875 -5.8125 74.515625 4.828125 
Q 65.53125 -6.296875 53.125 -14.5 
Q 50.984375 -11.671875 47.5625 -8.34375 
Q 61.234375 0.640625 69.734375 12.0625 
Q 61.8125 25.734375 59.28125 43.609375 
Q 57.234375 39.984375 54.984375 36.859375 
Q 53.03125 39.703125 50.09375 43.109375 
Q 61.421875 59.421875 65.234375 82.859375 
z
M 2.34375 26.515625 
L 17.1875 26.515625 
Q 19.34375 30.21875 21.390625 34.125 
L 28.421875 31.890625 
Q 26.859375 29.15625 25.296875 26.515625 
L 49.21875 26.515625 
L 49.21875 20.171875 
Q 45.515625 10.59375 37.984375 3.375 
Q 43.359375 0.828125 48.921875 -1.703125 
L 44.625 -8.453125 
Q 38.578125 -5.03125 32.03125 -1.609375 
Q 21 -9.515625 4.203125 -14.109375 
Q 2.640625 -10.984375 0.875 -7.28125 
Q 15.140625 -4.046875 25 2 
Q 16.609375 6.296875 7.421875 10.796875 
Q 10.546875 15.28125 13.484375 20.0625 
L 2.34375 20.0625 
z
M 3.421875 60.109375 
L 25.875 60.109375 
L 25.875 81.984375 
L 33.109375 81.984375 
L 33.109375 60.109375 
L 51.859375 60.109375 
L 51.859375 53.65625 
L 33.109375 53.65625 
L 33.109375 47.703125 
L 36.03125 51.03125 
Q 45.125 44.390625 51.265625 39.3125 
L 46.578125 33.84375 
Q 41.21875 38.921875 33.109375 45.265625 
L 33.109375 34.125 
L 25.875 34.125 
L 25.875 47.796875 
Q 17 38.53125 5.171875 31.5 
Q 3.328125 34.328125 0.984375 37.453125 
Q 13.28125 44.09375 23.53125 53.65625 
L 3.421875 53.65625 
z
M 84.1875 57.375 
L 65.921875 57.375 
Q 65.4375 56.109375 64.84375 54.9375 
Q 66.609375 34.234375 74.609375 19.484375 
Q 82.421875 33.734375 84.1875 57.375 
z
M 17 13.03125 
Q 23.921875 9.90625 31.25 6.5 
Q 37.984375 12.25 41.796875 20.0625 
L 21.484375 20.0625 
Q 19.234375 16.453125 17 13.03125 
z
M 47.46875 79.546875 
L 53.515625 75.53125 
Q 48.140625 68.5 42.78125 62.546875 
Q 40.53125 64.5 37.5 66.65625 
Q 42.578125 72.609375 47.46875 79.546875 
z
M 5.953125 75.25 
L 11.53125 79.046875 
Q 15.921875 73.6875 20.609375 67.53125 
L 14.546875 63.234375 
Q 10.25 69.578125 5.953125 75.25 
z
" id="MicrosoftYaHei-25968"/>
      <path d="M 82.625 -17.1875 
Q 65.1875 1.859375 65.1875 28.90625 
Q 65.1875 56.296875 82.625 75.59375 
L 91.015625 75.59375 
Q 73.6875 55.8125 73.6875 29 
Q 73.6875 2.59375 90.921875 -17.1875 
z
" id="MicrosoftYaHei-65288"/>
      <path d="M 2.9375 75.046875 
L 97.078125 75.046875 
L 97.078125 67.53125 
L 41.15625 67.53125 
Q 40.765625 56.640625 40.140625 47.125 
L 85.453125 47.125 
Q 84.46875 27.203125 83.203125 9.328125 
Q 82.328125 -1.515625 78.21875 -6.296875 
Q 74.3125 -10.6875 64.0625 -10.796875 
Q 58.6875 -10.984375 45.90625 -10.015625 
Q 45.40625 -6.296875 44.4375 -1.03125 
Q 56.84375 -2.6875 63.375 -2.6875 
Q 73.828125 -3.46875 74.90625 10.5 
Q 76.078125 24.171875 76.65625 39.703125 
L 39.546875 39.703125 
Q 35.890625 3.953125 7.515625 -13.421875 
Q 5.28125 -10.40625 1.765625 -6.5 
Q 29.203125 10.203125 31.15625 43.3125 
Q 32.078125 54 32.375 67.53125 
L 2.9375 67.53125 
z
" id="MicrosoftYaHei-19975"/>
      <path d="M 17.390625 -17.1875 
L 8.984375 -17.1875 
Q 26.3125 2.546875 26.3125 29.5 
Q 26.3125 55.953125 9.078125 75.59375 
L 17.390625 75.59375 
Q 34.71875 56.6875 34.71875 29.5 
Q 34.71875 2 17.390625 -17.1875 
z
" id="MicrosoftYaHei-65289"/>
     </defs>
     <g transform="translate(47.19375 264.92)rotate(-90)scale(0.1 -0.1)">
      <use xlink:href="#MicrosoftYaHei-22995"/>
      <use x="100" xlink:href="#MicrosoftYaHei-21517"/>
      <use x="200" xlink:href="#MicrosoftYaHei-37325"/>
      <use x="300" xlink:href="#MicrosoftYaHei-22797"/>
      <use x="400" xlink:href="#MicrosoftYaHei-20154"/>
      <use x="500" xlink:href="#MicrosoftYaHei-25968"/>
      <use x="600" xlink:href="#MicrosoftYaHei-65288"/>
      <use x="700" xlink:href="#MicrosoftYaHei-19975"/>
      <use x="800" xlink:href="#MicrosoftYaHei-20154"/>
      <use x="900" xlink:href="#MicrosoftYaHei-65289"/>
     </g>
    </g>
   </g>
   <g id="patch_14">
    <path d="M 90 378 
L 90 51.84 
" style="fill:none;stroke:#000000;stroke-linecap:square;stroke-linejoin:miter;stroke-width:0.8;"/>
   </g>
   <g id="patch_15">
    <path d="M 648 378 
L 648 51.84 
" style="fill:none;stroke:#000000;stroke-linecap:square;stroke-linejoin:miter;stroke-width:0.8;"/>
   </g>
   <g id="patch_16">
    <path d="M 90 378 
L 648 378 
" style="fill:none;stroke:#000000;stroke-linecap:square;stroke-linejoin:miter;stroke-width:0.8;"/>
   </g>
   <g id="patch_17">
    <path d="M 90 51.84 
L 648 51.84 
" style="fill:none;stroke:#000000;stroke-linecap:square;stroke-linejoin:miter;stroke-width:0.8;"/>
   </g>
   <g id="text_14">
    <!-- 512.9096 -->
    <defs>
     <path d="M 5.8125 5.03125 
Q 5.8125 7.671875 7.609375 9.46875 
Q 9.421875 11.28125 12.109375 11.28125 
Q 14.84375 11.28125 16.640625 9.453125 
Q 18.453125 7.625 18.453125 5.03125 
Q 18.453125 2.484375 16.640625 0.65625 
Q 14.84375 -1.171875 12.0625 -1.171875 
Q 9.375 -1.171875 7.59375 0.65625 
Q 5.8125 2.484375 5.8125 5.03125 
z
" id="MicrosoftYaHei-46"/>
     <path d="M 9.03125 10.25 
Q 15.28125 6.640625 22.515625 6.640625 
Q 32.671875 6.640625 38.25 14.640625 
Q 43.84375 22.65625 43.84375 37.40625 
Q 43.75 37.3125 43.65625 37.40625 
Q 38.671875 27.9375 26.90625 27.9375 
Q 17.390625 27.9375 11.140625 34.46875 
Q 4.890625 41.015625 4.890625 51.46875 
Q 4.890625 62.59375 11.71875 69.75 
Q 18.5625 76.90625 29.4375 76.90625 
Q 40.71875 76.90625 47.0625 68.046875 
Q 53.421875 59.1875 53.421875 42.234375 
Q 53.421875 21.296875 45.21875 10.015625 
Q 37.015625 -1.265625 22.515625 -1.265625 
Q 14.546875 -1.265625 9.03125 1.3125 
z
M 14.546875 52.6875 
Q 14.546875 45.0625 18.453125 40.59375 
Q 22.359375 36.140625 29.25 36.140625 
Q 35.203125 36.140625 39.25 40.203125 
Q 43.3125 44.28125 43.3125 50.09375 
Q 43.3125 58.25 39.28125 63.59375 
Q 35.25 68.953125 28.65625 68.953125 
Q 22.5625 68.953125 18.546875 64.3125 
Q 14.546875 59.671875 14.546875 52.6875 
z
" id="MicrosoftYaHei-57"/>
    </defs>
    <g transform="translate(112.42339 370.114362)scale(0.1 -0.1)">
     <use xlink:href="#MicrosoftYaHei-53"/>
     <use x="58.642578" xlink:href="#MicrosoftYaHei-49"/>
     <use x="117.285156" xlink:href="#MicrosoftYaHei-50"/>
     <use x="175.927734" xlink:href="#MicrosoftYaHei-46"/>
     <use x="200" xlink:href="#MicrosoftYaHei-57"/>
     <use x="258.642578" xlink:href="#MicrosoftYaHei-48"/>
     <use x="317.285156" xlink:href="#MicrosoftYaHei-57"/>
     <use x="375.927734" xlink:href="#MicrosoftYaHei-54"/>
    </g>
   </g>
   <g id="text_15">
    <!-- 510.659 -->
    <g transform="translate(162.325118 370.137603)scale(0.1 -0.1)">
     <use xlink:href="#MicrosoftYaHei-53"/>
     <use x="58.642578" xlink:href="#MicrosoftYaHei-49"/>
     <use x="117.285156" xlink:href="#MicrosoftYaHei-48"/>
     <use x="175.927734" xlink:href="#MicrosoftYaHei-46"/>
     <use x="200" xlink:href="#MicrosoftYaHei-54"/>
     <use x="258.642578" xlink:href="#MicrosoftYaHei-53"/>
     <use x="317.285156" xlink:href="#MicrosoftYaHei-57"/>
    </g>
   </g>
   <g id="text_16">
    <!-- 481.6785 -->
    <defs>
     <path d="M 53.46875 69.734375 
Q 41.546875 48.921875 34.734375 31.21875 
Q 27.9375 13.53125 26.3125 0 
L 16.359375 0 
Q 18.171875 13.328125 24.90625 30.421875 
Q 31.640625 47.515625 42.921875 67.1875 
L 5.421875 67.1875 
L 5.421875 75.640625 
L 53.46875 75.640625 
z
" id="MicrosoftYaHei-55"/>
    </defs>
    <g transform="translate(206.362784 370.436863)scale(0.1 -0.1)">
     <use xlink:href="#MicrosoftYaHei-52"/>
     <use x="58.642578" xlink:href="#MicrosoftYaHei-56"/>
     <use x="117.285156" xlink:href="#MicrosoftYaHei-49"/>
     <use x="175.927734" xlink:href="#MicrosoftYaHei-46"/>
     <use x="200" xlink:href="#MicrosoftYaHei-54"/>
     <use x="258.642578" xlink:href="#MicrosoftYaHei-55"/>
     <use x="317.285156" xlink:href="#MicrosoftYaHei-56"/>
     <use x="375.927734" xlink:href="#MicrosoftYaHei-53"/>
    </g>
   </g>
   <g id="text_17">
    <!-- 433.0805 -->
    <g transform="translate(253.332481 370.938698)scale(0.1 -0.1)">
     <use xlink:href="#MicrosoftYaHei-52"/>
     <use x="58.642578" xlink:href="#MicrosoftYaHei-51"/>
     <use x="117.285156" xlink:href="#MicrosoftYaHei-51"/>
     <use x="175.927734" xlink:href="#MicrosoftYaHei-46"/>
     <use x="200" xlink:href="#MicrosoftYaHei-48"/>
     <use x="258.642578" xlink:href="#MicrosoftYaHei-56"/>
     <use x="317.285156" xlink:href="#MicrosoftYaHei-48"/>
     <use x="375.927734" xlink:href="#MicrosoftYaHei-53"/>
    </g>
   </g>
   <g id="text_18">
    <!-- 413.0441 -->
    <g transform="translate(300.302178 371.145599)scale(0.1 -0.1)">
     <use xlink:href="#MicrosoftYaHei-52"/>
     <use x="58.642578" xlink:href="#MicrosoftYaHei-49"/>
     <use x="117.285156" xlink:href="#MicrosoftYaHei-51"/>
     <use x="175.927734" xlink:href="#MicrosoftYaHei-46"/>
     <use x="200" xlink:href="#MicrosoftYaHei-48"/>
     <use x="258.642578" xlink:href="#MicrosoftYaHei-52"/>
     <use x="317.285156" xlink:href="#MicrosoftYaHei-52"/>
     <use x="375.927734" xlink:href="#MicrosoftYaHei-49"/>
    </g>
   </g>
   <g id="text_19">
    <!-- 407.1368 -->
    <g transform="translate(347.271875 371.2066)scale(0.1 -0.1)">
     <use xlink:href="#MicrosoftYaHei-52"/>
     <use x="58.642578" xlink:href="#MicrosoftYaHei-48"/>
     <use x="117.285156" xlink:href="#MicrosoftYaHei-55"/>
     <use x="175.927734" xlink:href="#MicrosoftYaHei-46"/>
     <use x="200" xlink:href="#MicrosoftYaHei-49"/>
     <use x="258.642578" xlink:href="#MicrosoftYaHei-51"/>
     <use x="317.285156" xlink:href="#MicrosoftYaHei-54"/>
     <use x="375.927734" xlink:href="#MicrosoftYaHei-56"/>
    </g>
   </g>
   <g id="text_20">
    <!-- 359.0557 -->
    <g transform="translate(394.241572 371.703098)scale(0.1 -0.1)">
     <use xlink:href="#MicrosoftYaHei-51"/>
     <use x="58.642578" xlink:href="#MicrosoftYaHei-53"/>
     <use x="117.285156" xlink:href="#MicrosoftYaHei-57"/>
     <use x="175.927734" xlink:href="#MicrosoftYaHei-46"/>
     <use x="200" xlink:href="#MicrosoftYaHei-48"/>
     <use x="258.642578" xlink:href="#MicrosoftYaHei-53"/>
     <use x="317.285156" xlink:href="#MicrosoftYaHei-53"/>
     <use x="375.927734" xlink:href="#MicrosoftYaHei-55"/>
    </g>
   </g>
   <g id="text_21">
    <!-- 258.0687 -->
    <g transform="translate(441.211269 372.745916)scale(0.1 -0.1)">
     <use xlink:href="#MicrosoftYaHei-50"/>
     <use x="58.642578" xlink:href="#MicrosoftYaHei-53"/>
     <use x="117.285156" xlink:href="#MicrosoftYaHei-56"/>
     <use x="175.927734" xlink:href="#MicrosoftYaHei-46"/>
     <use x="200" xlink:href="#MicrosoftYaHei-48"/>
     <use x="258.642578" xlink:href="#MicrosoftYaHei-54"/>
     <use x="317.285156" xlink:href="#MicrosoftYaHei-56"/>
     <use x="375.927734" xlink:href="#MicrosoftYaHei-55"/>
    </g>
   </g>
   <g id="text_22">
    <!-- 256.4867 -->
    <g transform="translate(488.180966 372.762252)scale(0.1 -0.1)">
     <use xlink:href="#MicrosoftYaHei-50"/>
     <use x="58.642578" xlink:href="#MicrosoftYaHei-53"/>
     <use x="117.285156" xlink:href="#MicrosoftYaHei-54"/>
     <use x="175.927734" xlink:href="#MicrosoftYaHei-46"/>
     <use x="200" xlink:href="#MicrosoftYaHei-52"/>
     <use x="258.642578" xlink:href="#MicrosoftYaHei-56"/>
     <use x="317.285156" xlink:href="#MicrosoftYaHei-54"/>
     <use x="375.927734" xlink:href="#MicrosoftYaHei-55"/>
    </g>
   </g>
   <g id="text_23">
    <!-- 237.67 -->
    <g transform="translate(541.014725 372.956558)scale(0.1 -0.1)">
     <use xlink:href="#MicrosoftYaHei-50"/>
     <use x="58.642578" xlink:href="#MicrosoftYaHei-51"/>
     <use x="117.285156" xlink:href="#MicrosoftYaHei-55"/>
     <use x="175.927734" xlink:href="#MicrosoftYaHei-46"/>
     <use x="200" xlink:href="#MicrosoftYaHei-54"/>
     <use x="258.642578" xlink:href="#MicrosoftYaHei-55"/>
    </g>
   </g>
   <g id="text_24">
    <!-- 30081.423 -->
    <g transform="translate(579.188329 64.782228)scale(0.1 -0.1)">
     <use xlink:href="#MicrosoftYaHei-51"/>
     <use x="58.642578" xlink:href="#MicrosoftYaHei-48"/>
     <use x="117.285156" xlink:href="#MicrosoftYaHei-48"/>
     <use x="175.927734" xlink:href="#MicrosoftYaHei-56"/>
     <use x="234.570312" xlink:href="#MicrosoftYaHei-49"/>
     <use x="293.212891" xlink:href="#MicrosoftYaHei-46"/>
     <use x="317.285156" xlink:href="#MicrosoftYaHei-52"/>
     <use x="375.927734" xlink:href="#MicrosoftYaHei-50"/>
     <use x="434.570312" xlink:href="#MicrosoftYaHei-51"/>
    </g>
   </g>
   <g id="text_25">
    <!-- 1880年～2014年美国热门姓名使用频数直方图 -->
    <defs>
     <path d="M 1.859375 19.96875 
L 17.578125 19.96875 
L 17.578125 47.90625 
L 52.15625 47.90625 
L 52.15625 65.28125 
L 23.4375 65.28125 
Q 16.84375 53.421875 8.6875 43.40625 
Q 6.15625 46.140625 2.640625 48.875 
Q 16.5 64.5 23.4375 83.9375 
L 31.453125 81.6875 
Q 29.390625 76.859375 27.15625 72.3125 
L 94.34375 72.3125 
L 94.34375 65.28125 
L 60.0625 65.28125 
L 60.0625 47.90625 
L 92.671875 47.90625 
L 92.671875 41.0625 
L 60.0625 41.0625 
L 60.0625 19.96875 
L 98.734375 19.96875 
L 98.734375 12.9375 
L 60.0625 12.9375 
L 60.0625 -13.421875 
L 52.15625 -13.421875 
L 52.15625 12.9375 
L 1.859375 12.9375 
z
M 25.296875 19.96875 
L 52.15625 19.96875 
L 52.15625 41.0625 
L 25.296875 41.0625 
z
" id="MicrosoftYaHei-24180"/>
     <path d="M 76.21875 39.59375 
Q 75.828125 31.734375 71.828125 27.3125 
Q 67.828125 22.90625 61.1875 22.90625 
Q 58.015625 22.90625 55.15625 24.09375 
Q 52.296875 25.296875 47.3125 28.71875 
Q 42.140625 32.171875 38.921875 32.171875 
Q 31.78125 32.171875 31.296875 23 
L 23.78125 23 
Q 24.125 30.859375 28.125 35.21875 
Q 32.125 39.59375 38.8125 39.59375 
Q 44.828125 39.59375 51.21875 35.015625 
Q 55.671875 31.984375 57.5 31.171875 
Q 59.328125 30.375 61.671875 30.375 
Q 64.3125 30.375 66.40625 32.71875 
Q 68.5 35.0625 68.703125 39.59375 
z
" id="MicrosoftYaHei-65374"/>
     <path d="M 2.34375 37.546875 
L 46.1875 37.546875 
L 46.1875 46.734375 
L 10.359375 46.734375 
L 10.359375 53.375 
L 46.1875 53.375 
L 46.1875 62.359375 
L 4.5 62.359375 
L 4.5 69 
L 35.296875 69 
Q 30.28125 73.34375 22.265625 79.4375 
L 26.765625 84.328125 
Q 35.25 78.5625 40.921875 74.265625 
L 35.75 69 
L 61.71875 69 
L 58.109375 73.09375 
Q 65.828125 78.46875 72.078125 83.9375 
L 77.828125 78.46875 
Q 71.578125 73.78125 64.3125 69 
L 96.09375 69 
L 96.09375 62.359375 
L 54.203125 62.359375 
L 54.203125 53.375 
L 90.828125 53.375 
L 90.828125 46.734375 
L 54.203125 46.734375 
L 54.203125 37.546875 
L 97.859375 37.546875 
L 97.859375 30.90625 
L 2.34375 30.90625 
z
M 98.640625 -4.734375 
Q 94.921875 -9.71875 92.96875 -12.84375 
Q 60.890625 -6.546875 50.25 12.546875 
Q 40.71875 -7.625 6.34375 -13.625 
Q 4.390625 -10.296875 1.5625 -6.203125 
Q 34.375 -1.65625 42.828125 14.3125 
L 3.71875 14.3125 
L 3.71875 20.953125 
L 45.515625 20.953125 
Q 46.484375 24.359375 47.078125 28.765625 
L 55.078125 28.765625 
Q 54.296875 24.46875 53.328125 20.953125 
L 96.875 20.953125 
L 96.875 14.3125 
L 56.734375 14.3125 
Q 68.171875 -2.15625 98.640625 -4.734375 
z
" id="MicrosoftYaHei-32654"/>
     <path d="M 7.328125 78.078125 
L 92.78125 78.078125 
L 92.78125 -13.03125 
L 85.25 -13.03125 
L 85.25 -8.15625 
L 14.84375 -8.15625 
L 14.84375 -13.140625 
L 7.328125 -13.140625 
z
M 85.25 71.140625 
L 14.84375 71.140625 
L 14.84375 -1.21875 
L 85.25 -1.21875 
z
M 19.34375 15.765625 
L 46.296875 15.765625 
L 46.296875 35.109375 
L 22.75 35.109375 
L 22.75 41.75 
L 46.296875 41.75 
L 46.296875 54.828125 
L 20.90625 54.828125 
L 20.90625 61.46875 
L 79.109375 61.46875 
L 79.109375 54.828125 
L 53.515625 54.828125 
L 53.515625 41.75 
L 77.15625 41.75 
L 77.15625 35.109375 
L 53.515625 35.109375 
L 53.515625 15.765625 
L 80.671875 15.765625 
L 80.671875 9.125 
L 19.34375 9.125 
z
M 58.59375 28.859375 
L 64.0625 32.953125 
Q 69.4375 27.390625 73.25 22.515625 
L 67.484375 18.109375 
Q 62.796875 24.46875 58.59375 28.859375 
z
" id="MicrosoftYaHei-22269"/>
     <path d="M 38.375 47.3125 
L 42.578125 52.875 
Q 47.078125 50.140625 51.515625 47.359375 
Q 53.03125 53.953125 53.125 61.765625 
L 41.109375 61.765625 
L 41.109375 68.796875 
L 53.265625 68.796875 
Q 53.46875 76.90625 53.421875 83.546875 
L 60.9375 83.546875 
Q 60.9375 77.203125 60.75 68.796875 
L 83.40625 68.796875 
Q 82.515625 39.890625 84.671875 29.640625 
Q 85.9375 23.875 88.375 23.875 
Q 90.328125 23.875 90.921875 27.203125 
Q 91.796875 31.984375 92.484375 40.28125 
Q 96.1875 38.921875 99.703125 37.9375 
Q 98.734375 29.25 97.65625 24.171875 
Q 95.609375 15.1875 88.578125 15.1875 
Q 80.171875 15.1875 77.25 28.765625 
Q 75.484375 37.84375 75.78125 61.765625 
L 60.59375 61.765625 
Q 60.453125 51.5625 58.25 43.0625 
Q 65.140625 38.625 71.78125 34.03125 
L 66.890625 27.09375 
Q 61.140625 31.546875 55.765625 35.453125 
Q 49.65625 20.84375 36.140625 12.75 
Q 33.6875 15.765625 30.46875 19.09375 
Q 43.796875 26.125 49.265625 40.046875 
Q 43.609375 44 38.375 47.3125 
z
M 2.734375 43.015625 
Q 10.359375 44.96875 17.78125 47.078125 
L 17.78125 61.96875 
L 3.90625 61.96875 
L 3.90625 68.703125 
L 17.78125 68.703125 
L 17.78125 83.15625 
L 25.203125 83.15625 
L 25.203125 68.703125 
L 36.71875 68.703125 
L 36.71875 61.96875 
L 25.203125 61.96875 
L 25.203125 49.21875 
Q 30.5625 50.875 35.84375 52.59375 
Q 35.84375 48.09375 36.03125 45.171875 
Q 35.5 44.96875 25.203125 41.75 
L 25.203125 27.390625 
Q 25.203125 15.578125 14.15625 15.578125 
Q 9.96875 15.578125 5.078125 15.765625 
Q 4.6875 19.09375 3.90625 23.78125 
Q 8.6875 23 12.59375 23 
Q 17.78125 23 17.78125 28.265625 
L 17.78125 39.453125 
Q 11.921875 37.59375 4.203125 35.203125 
z
M 78.8125 9.90625 
L 85.0625 13.625 
Q 91.40625 4.25 97.65625 -6.203125 
L 90.71875 -10.296875 
Q 85.546875 -0.640625 78.8125 9.90625 
z
M 14.0625 11.375 
L 20.90625 8.453125 
Q 16.5 -1.609375 10.15625 -12.359375 
Q 7.234375 -10.6875 3.421875 -8.9375 
Q 10.15625 1.609375 14.0625 11.375 
z
M 29.984375 7.46875 
L 36.421875 10.296875 
Q 40.921875 2.09375 45.703125 -7.859375 
L 38.484375 -10.984375 
Q 34.28125 -0.921875 29.984375 7.46875 
z
M 54.78125 7.953125 
L 61.234375 10.796875 
Q 66.21875 2.09375 70.609375 -7.078125 
L 63.484375 -10.109375 
Q 59.765625 -0.921875 54.78125 7.953125 
z
" id="MicrosoftYaHei-28909"/>
     <path d="M 38.484375 68.796875 
L 38.484375 76.21875 
L 91.40625 76.21875 
L 91.40625 2.59375 
Q 91.40625 -11.375 78.03125 -11.375 
Q 71.96875 -11.375 62.5 -11.1875 
Q 62.015625 -7.859375 60.9375 -3.078125 
Q 69.921875 -3.65625 76.46875 -3.65625 
Q 83.59375 -3.65625 83.59375 3.765625 
L 83.59375 68.796875 
z
M 8.984375 63.328125 
L 16.796875 63.328125 
L 16.796875 -12.453125 
L 8.984375 -12.453125 
z
M 13.375 78.5625 
L 18.953125 83.546875 
Q 25.484375 77.390625 32.71875 69.875 
L 26.375 64.3125 
Q 19.625 72.015625 13.375 78.5625 
z
" id="MicrosoftYaHei-38376"/>
     <path d="M 35.453125 19.484375 
L 42 23.09375 
Q 46.4375 15.578125 53.265625 10.0625 
Q 56.78125 15.140625 58.109375 26.3125 
L 32.625 26.3125 
L 32.625 53.171875 
L 58.984375 53.171875 
L 58.984375 62.84375 
L 27.734375 62.84375 
L 27.734375 69.484375 
L 58.984375 69.484375 
L 58.984375 82.671875 
L 66.5 82.671875 
L 66.5 69.484375 
L 98.046875 69.484375 
L 98.046875 62.84375 
L 66.5 62.84375 
L 66.5 53.171875 
L 92.78125 53.171875 
L 92.78125 22.125 
L 85.359375 22.125 
L 85.359375 26.3125 
L 65.671875 26.3125 
Q 64.15625 12.703125 59.765625 5.8125 
Q 59.71875 5.71875 59.671875 5.671875 
Q 74.8125 -3.171875 98.828125 -4.640625 
Q 95.90625 -8.84375 93.453125 -12.75 
Q 69.875 -9.859375 54.5 -0.046875 
Q 45.953125 -7.625 29.390625 -13.53125 
Q 27.15625 -10.40625 24.3125 -6.984375 
Q 40.1875 -2 48.140625 4.546875 
Q 40.53125 10.9375 35.453125 19.484375 
z
M 1.46875 35.6875 
Q 14.546875 55.515625 21.78125 83.0625 
L 29 80.90625 
Q 25 67.78125 20.21875 56.546875 
L 20.21875 -13.234375 
L 13.28125 -13.234375 
L 13.28125 42.140625 
Q 9.078125 34.421875 4.390625 27.875 
Q 2.9375 31.984375 1.46875 35.6875 
z
M 66.21875 32.859375 
L 85.359375 32.859375 
L 85.359375 46.625 
L 66.5 46.625 
Q 66.5 42.828125 66.21875 32.859375 
z
M 58.6875 32.859375 
Q 58.984375 37.5 58.984375 46.625 
L 40.046875 46.625 
L 40.046875 32.859375 
z
" id="MicrosoftYaHei-20351"/>
     <path d="M 48.25 -11.46875 
L 48.25 19.578125 
L 19.828125 19.578125 
Q 18.171875 -0.734375 8.015625 -14.109375 
Q 5.46875 -10.890625 2.25 -7.375 
Q 8.59375 1.609375 10.84375 12.546875 
Q 12.984375 23.09375 12.984375 42.4375 
L 12.984375 77.296875 
L 92.578125 77.296875 
L 92.578125 -0.34375 
Q 92.578125 -11.96875 81.546875 -11.96875 
Q 74.8125 -11.96875 66.40625 -11.671875 
Q 65.921875 -8.453125 64.9375 -3.5625 
Q 73.4375 -4.15625 78.71875 -4.15625 
Q 84.765625 -4.15625 84.765625 1.609375 
L 84.765625 19.578125 
L 56.0625 19.578125 
L 56.0625 -11.46875 
z
M 56.0625 26.609375 
L 84.765625 26.609375 
L 84.765625 44.875 
L 56.0625 44.875 
z
M 84.765625 70.0625 
L 56.0625 70.0625 
L 56.0625 51.90625 
L 84.765625 51.90625 
z
M 20.359375 26.609375 
L 48.25 26.609375 
L 48.25 44.875 
L 20.796875 44.875 
Q 21.09375 35.40625 20.359375 26.609375 
z
M 20.796875 70.0625 
L 20.796875 51.90625 
L 48.25 51.90625 
L 48.25 70.0625 
z
" id="MicrosoftYaHei-29992"/>
     <path d="M 50 58.0625 
L 64.265625 58.0625 
L 66.703125 70.65625 
L 45.90625 70.65625 
L 45.90625 77.296875 
L 98.34375 77.296875 
L 98.34375 70.65625 
L 74.8125 70.65625 
L 71.875 58.0625 
L 94.046875 58.0625 
L 94.046875 7.46875 
L 86.71875 7.46875 
L 86.71875 51.421875 
L 57.328125 51.421875 
L 57.328125 7.46875 
L 50 7.46875 
z
M 1.46875 47.40625 
L 8.203125 47.40625 
L 8.203125 73.296875 
L 15.046875 73.296875 
L 15.046875 47.40625 
L 25 47.40625 
L 25 82.375 
L 32.03125 82.375 
L 32.03125 67.046875 
L 45.703125 67.046875 
L 45.703125 60.59375 
L 32.03125 60.59375 
L 32.03125 47.40625 
L 46.96875 47.40625 
L 46.96875 40.765625 
L 1.46875 40.765625 
z
M 68.0625 45.0625 
L 75.390625 45.0625 
L 75.390625 30.21875 
Q 75.390625 19 72.65625 11.1875 
Q 87.796875 2 99.609375 -6.296875 
L 94.921875 -13.140625 
Q 82.90625 -3.65625 69.53125 4.734375 
Q 68.953125 3.765625 68.265625 2.875 
Q 61.140625 -6.984375 43.171875 -13.8125 
Q 41.015625 -10.796875 38.1875 -7.46875 
Q 55.078125 -1.125 61.625 6.984375 
Q 68.0625 14.796875 68.0625 30.71875 
z
M 24.21875 38.421875 
L 31.25 38.421875 
L 31.25 13.328125 
Q 37.40625 20.453125 41.609375 29.15625 
L 48.4375 25.140625 
Q 34.46875 -0.734375 6.15625 -14.203125 
Q 4.296875 -11.578125 1.078125 -7.859375 
Q 17.578125 -0.734375 28.421875 10.296875 
L 24.21875 10.296875 
z
M 0.59375 9.03125 
Q 5.953125 18.609375 10.453125 32.5625 
L 17.390625 30.421875 
Q 12.59375 16.0625 7.125 5.71875 
Q 4.203125 7.375 0.59375 9.03125 
z
" id="MicrosoftYaHei-39057"/>
     <path d="M 1.859375 -2.390625 
L 15.140625 -2.390625 
L 15.140625 58.453125 
L 45.3125 58.453125 
L 45.3125 67.4375 
L 3.8125 67.4375 
L 3.8125 74.265625 
L 45.3125 74.265625 
L 45.3125 83.25 
L 53.125 83.25 
L 53.125 74.265625 
L 96.484375 74.265625 
L 96.484375 67.4375 
L 53.125 67.4375 
L 53.125 58.453125 
L 84.375 58.453125 
L 84.375 -2.390625 
L 98.34375 -2.390625 
L 98.34375 -9.234375 
L 1.859375 -9.234375 
z
M 22.65625 -2.390625 
L 76.859375 -2.390625 
L 76.859375 6.59375 
L 22.65625 6.59375 
z
M 76.859375 52 
L 22.65625 52 
L 22.65625 43.109375 
L 76.859375 43.109375 
z
M 22.65625 12.84375 
L 76.859375 12.84375 
L 76.859375 21.734375 
L 22.65625 21.734375 
z
M 22.65625 27.984375 
L 76.859375 27.984375 
L 76.859375 36.859375 
L 22.65625 36.859375 
z
" id="MicrosoftYaHei-30452"/>
     <path d="M 3.03125 66.265625 
L 49.90625 66.265625 
Q 44.96875 75.640625 42.1875 79.9375 
L 49.8125 83.546875 
Q 52.546875 79.34375 58.015625 69.875 
L 50.875 66.265625 
L 97.171875 66.265625 
L 97.171875 58.84375 
L 37.9375 58.84375 
Q 37.59375 49.953125 37.203125 43.703125 
L 84.375 43.703125 
Q 83.203125 22.515625 81.84375 6.890625 
Q 80.765625 -10.796875 64.65625 -10.796875 
Q 57.234375 -10.796875 44.828125 -10.015625 
Q 44.34375 -6.296875 43.359375 -1.03125 
Q 55.765625 -2.6875 63.484375 -2.6875 
Q 72.46875 -2.6875 73.53125 7.953125 
Q 74.703125 19.578125 75.59375 36.375 
L 36.671875 36.375 
Q 33.9375 4.15625 6.84375 -13.625 
Q 4.203125 -10.5 0.875 -6.984375 
Q 26.65625 10.015625 28.515625 38.53125 
Q 29.203125 46.234375 29.640625 58.84375 
L 3.03125 58.84375 
z
" id="MicrosoftYaHei-26041"/>
     <path d="M 6.734375 79.25 
L 92.875 79.25 
L 92.875 -12.640625 
L 85.546875 -12.640625 
L 85.546875 -7.953125 
L 14.0625 -7.953125 
L 14.0625 -12.640625 
L 6.734375 -12.640625 
z
M 85.546875 72.21875 
L 14.0625 72.21875 
L 14.0625 -0.921875 
L 85.546875 -0.921875 
z
M 17.390625 48.296875 
Q 30.765625 57.953125 39.359375 71.046875 
L 45.796875 68.015625 
Q 44 65.328125 41.890625 62.75 
L 76.46875 62.75 
L 76.46875 56.984375 
Q 69.28125 48.296875 58.15625 41.3125 
Q 68.453125 37.84375 83.40625 35.890625 
Q 81.15625 31.5 80.171875 28.5625 
Q 62.84375 32.515625 50.875 37.5 
Q 38.921875 32.125 19.140625 27 
Q 17.78125 30.21875 15.828125 33.25 
Q 32.953125 36.765625 44.140625 41.3125 
Q 37.25 46.046875 32.28125 52.203125 
Q 27.640625 47.75 22.171875 43.5 
Q 20.21875 45.5625 17.390625 48.296875 
z
M 24.421875 10.5 
L 26.46875 17.234375 
Q 50.875 14.015625 73.4375 9.71875 
L 70.796875 2.296875 
Q 49.21875 7.078125 24.421875 10.5 
z
M 66.796875 56.6875 
L 36.671875 56.6875 
Q 36.53125 56.5 36.375 56.34375 
Q 42.046875 49.078125 50.6875 44.390625 
Q 60.796875 49.8125 66.796875 56.6875 
z
M 34.671875 23.484375 
L 36.625 30.03125 
Q 50.984375 27.875 66.796875 25.140625 
L 64.75 18.3125 
Q 48.734375 21.53125 34.671875 23.484375 
z
" id="MicrosoftYaHei-22270"/>
    </defs>
    <g transform="translate(244.8525 45.84)scale(0.12 -0.12)">
     <use xlink:href="#MicrosoftYaHei-49"/>
     <use x="58.642578" xlink:href="#MicrosoftYaHei-56"/>
     <use x="117.285156" xlink:href="#MicrosoftYaHei-56"/>
     <use x="175.927734" xlink:href="#MicrosoftYaHei-48"/>
     <use x="234.570312" xlink:href="#MicrosoftYaHei-24180"/>
     <use x="334.570312" xlink:href="#MicrosoftYaHei-65374"/>
     <use x="434.570312" xlink:href="#MicrosoftYaHei-50"/>
     <use x="493.212891" xlink:href="#MicrosoftYaHei-48"/>
     <use x="551.855469" xlink:href="#MicrosoftYaHei-49"/>
     <use x="610.498047" xlink:href="#MicrosoftYaHei-52"/>
     <use x="669.140625" xlink:href="#MicrosoftYaHei-24180"/>
     <use x="769.140625" xlink:href="#MicrosoftYaHei-32654"/>
     <use x="869.140625" xlink:href="#MicrosoftYaHei-22269"/>
     <use x="969.140625" xlink:href="#MicrosoftYaHei-28909"/>
     <use x="1069.140625" xlink:href="#MicrosoftYaHei-38376"/>
     <use x="1169.140625" xlink:href="#MicrosoftYaHei-22995"/>
     <use x="1269.140625" xlink:href="#MicrosoftYaHei-21517"/>
     <use x="1369.140625" xlink:href="#MicrosoftYaHei-20351"/>
     <use x="1469.140625" xlink:href="#MicrosoftYaHei-29992"/>
     <use x="1569.140625" xlink:href="#MicrosoftYaHei-39057"/>
     <use x="1669.140625" xlink:href="#MicrosoftYaHei-25968"/>
     <use x="1769.140625" xlink:href="#MicrosoftYaHei-30452"/>
     <use x="1869.140625" xlink:href="#MicrosoftYaHei-26041"/>
     <use x="1969.140625" xlink:href="#MicrosoftYaHei-22270"/>
    </g>
   </g>
  </g>
 </g>
 <defs>
  <clipPath id="p677766a8f8">
   <rect height="326.16" width="558" x="90" y="51.84"/>
  </clipPath>
 </defs>
</svg>
